<svg width="19" height="19" viewBox="0 0 19 19" fill="none" xmlns="http://www.w3.org/2000/svg">
<path d="M13.25 12.125V13.25C13.25 13.7 12.95 14 12.5 14C12.05 14 11.75 13.7 11.75 13.25V12.125H7.25V13.25C7.25 13.7 6.95 14 6.5 14C6.05 14 5.75 13.7 5.75 13.25V12.125H4.25C3.725 12.125 3.2 11.975 2.75 11.75V14.75C2.75 16.025 3.725 17 5 17H14C15.275 17 16.25 16.025 16.25 14.75V11.75C15.8 11.975 15.275 12.125 14.75 12.125H13.25ZM16.25 5H13.25V4.25C13.25 2.975 12.275 2 11 2H8C6.725 2 5.75 2.975 5.75 4.25V5H2.75C2.3 5 2 5.3 2 5.75V8.75C2 10.025 2.975 11 4.25 11H14.75C16.025 11 17 10.025 17 8.75V5.75C17 5.3 16.7 5 16.25 5ZM11.75 5H7.25V4.25C7.25 3.8 7.55 3.5 8 3.5H11C11.45 3.5 11.75 3.8 11.75 4.25V5Z" fill="#0C0F0A"/>
</svg>
