<svg width="12" height="12" viewBox="0 0 12 12" fill="none" xmlns="http://www.w3.org/2000/svg">
<g clip-path="url(#clip0_132_473)">
<path d="M1.49333 4.64C1.01333 4.16 0.693333 3.62667 0.693333 2.93333V2.88C0.746667 1.70667 1.65333 0.8 2.77333 0.746667H9.97333C10.1867 0.746667 10.2933 0.906667 10.2933 1.06667V7.30667C10.4533 7.36 10.56 7.36 10.72 7.41333C10.8267 7.46667 11.04 7.57333 11.04 7.57333V1.06667C11.04 0.48 10.56 0 9.97333 0H2.82667C1.22667 0 0 1.33333 0 2.93333C0 3.84 0.426667 4.64 1.06667 5.22667C1.12 5.28 1.17333 5.33333 1.28 5.33333C1.49333 5.33333 1.65333 5.17333 1.65333 4.96C1.65333 4.8 1.6 4.74667 1.49333 4.64Z" fill="#23550A"/>
<path d="M9.86679 7.73334H4.16012C3.78679 7.73334 3.46679 8.05334 3.46679 8.42667V9.28001C3.46679 9.65334 3.78679 9.97334 4.16012 9.97334H4.58679V9.28001H4.21345V8.48001C4.21345 8.48001 4.32012 8.48001 4.42679 8.48001C5.12012 8.48001 5.65345 9.17334 5.65345 9.86667C5.65345 10.5067 5.06679 11.36 4.10679 11.2533C3.25345 11.2 2.77345 10.4 2.77345 9.86667V2.82667C2.77345 2.50667 2.50679 2.24001 2.18679 2.24001H1.70679V2.98667H2.13345V9.92001C2.13345 11.3067 3.09345 12.0533 4.16012 12.0533H9.86679C11.0401 12.0533 11.9468 11.0933 11.9468 9.92001C11.9468 8.69334 10.9868 7.73334 9.86679 7.73334ZM11.2001 9.92001C11.2001 10.6667 10.5601 11.3067 9.81345 11.3067H5.86679C6.18679 10.9333 6.40012 10.4533 6.40012 9.92001C6.40012 9.06667 5.92012 8.53334 5.92012 8.53334H9.86679C10.6135 8.48001 11.2001 9.12001 11.2001 9.92001Z" fill="#23550A"/>
<path d="M8.31989 3.09333H4.05322V2.34666H8.31989C8.53322 2.34666 8.69322 2.50666 8.69322 2.72C8.69322 2.93333 8.53322 3.09333 8.31989 3.09333Z" fill="#23550A"/>
<path d="M8.31989 6.50666H4.05322V5.75999H8.31989C8.53322 5.75999 8.69322 5.91999 8.69322 6.13333C8.69322 6.34666 8.53322 6.50666 8.31989 6.50666Z" fill="#23550A"/>
<path d="M9.06656 4.8H4.05322V4.05333H9.06656C9.27989 4.05333 9.43989 4.21333 9.43989 4.42666C9.43989 4.64 9.27989 4.8 9.06656 4.8Z" fill="#23550A"/>
</g>
<defs>
<clipPath id="clip0_132_473">
<rect width="11.9467" height="12" fill="white"/>
</clipPath>
</defs>
</svg>
