<svg width="19" height="19" viewBox="0 0 19 19" fill="none" xmlns="http://www.w3.org/2000/svg">
<path d="M8.78906 9.5C8.78906 11.106 8.36164 12.537 7.69697 13.5515C7.02946 14.5703 6.16469 15.1172 5.28125 15.1172C4.39781 15.1172 3.53304 14.5703 2.86553 13.5515C2.20086 12.537 1.77344 11.106 1.77344 9.5C1.77344 7.894 2.20086 6.463 2.86553 5.44851C3.53304 4.42968 4.39781 3.88281 5.28125 3.88281C6.16469 3.88281 7.02946 4.42968 7.69697 5.44851C8.36164 6.463 8.78906 7.894 8.78906 9.5Z" stroke="#0C0F0A"/>
<path d="M4.02969 8.86729C3.65 8.51572 3.73438 7.8126 4.22656 7.30635C4.25469 7.27822 4.28281 7.2501 4.29688 7.23604C4.08594 7.10947 3.84687 7.05322 3.59375 7.05322C2.58125 7.05322 1.76562 8.1501 1.76562 9.51416C1.76562 10.8782 2.58125 11.9751 3.59375 11.9751C4.60625 11.9751 5.42188 10.8642 5.42188 9.5001C5.42188 9.26104 5.39375 9.02197 5.35156 8.79697C4.8875 9.12041 4.35313 9.1626 4.02969 8.86729Z" fill="#0C0F0A"/>
<path d="M17.2266 9.5C17.2266 11.106 16.7991 12.537 16.1345 13.5515C15.467 14.5703 14.6022 15.1172 13.7188 15.1172C12.8353 15.1172 11.9705 14.5703 11.303 13.5515C10.6384 12.537 10.2109 11.106 10.2109 9.5C10.2109 7.894 10.6384 6.463 11.303 5.44851C11.9705 4.42968 12.8353 3.88281 13.7188 3.88281C14.6022 3.88281 15.467 4.42968 16.1345 5.44851C16.7991 6.463 17.2266 7.894 17.2266 9.5Z" stroke="#0C0F0A"/>
<path d="M12.4672 8.86729C12.0875 8.51572 12.1719 7.8126 12.6641 7.30635C12.6922 7.27822 12.7203 7.2501 12.7344 7.23604C12.5234 7.10947 12.2844 7.05322 12.0312 7.05322C11.0188 7.05322 10.2031 8.1501 10.2031 9.51416C10.2031 10.8782 11.0188 11.9751 12.0312 11.9751C13.0438 11.9751 13.8594 10.8642 13.8594 9.5001C13.8594 9.26104 13.8312 9.02197 13.7891 8.79697C13.325 9.12041 12.7906 9.1626 12.4672 8.86729Z" fill="#0C0F0A"/>
</svg>
