<svg width="536" height="286" viewBox="0 0 536 286" fill="none" xmlns="http://www.w3.org/2000/svg">
<mask id="path-1-inside-1_294_2061" fill="white">
<path d="M0 0H536V25.8H0V0Z"/>
</mask>
<path d="M536 -0.5H531.037V0.5H536V-0.5ZM521.111 -0.5H511.185V0.5H521.111V-0.5ZM501.259 -0.5H491.333V0.5H501.259V-0.5ZM481.407 -0.5H471.481V0.5H481.407V-0.5ZM461.556 -0.5H451.63V0.5H461.556V-0.5ZM441.704 -0.5H431.778V0.5H441.704V-0.5ZM421.852 -0.5H411.926V0.5H421.852V-0.5ZM402 -0.5H392.074V0.5H402V-0.5ZM382.148 -0.5H372.222V0.5H382.148V-0.5ZM362.296 -0.5H352.37V0.5H362.296V-0.5ZM342.444 -0.5H332.518V0.5H342.444V-0.5ZM322.593 -0.5H312.667V0.5H322.593V-0.5ZM302.741 -0.5H292.815V0.5H302.741V-0.5ZM282.889 -0.5H272.963V0.5H282.889V-0.5ZM263.037 -0.5H253.111V0.5H263.037V-0.5ZM243.185 -0.5H233.259V0.5H243.185V-0.5ZM223.333 -0.5H213.407V0.5H223.333V-0.5ZM203.481 -0.5H193.555V0.5H203.481V-0.5ZM183.629 -0.5H173.704V0.5H183.629V-0.5ZM163.778 -0.5H153.852V0.5H163.778V-0.5ZM143.926 -0.5H134V0.5H143.926V-0.5ZM124.074 -0.5H114.148V0.5H124.074V-0.5ZM104.222 -0.5H94.2961V0.5H104.222V-0.5ZM84.3701 -0.5H74.4442V0.5H84.3701V-0.5ZM64.5182 -0.5H54.5923V0.5H64.5182V-0.5ZM44.6664 -0.5H34.7404V0.5H44.6664V-0.5ZM24.8145 -0.5H14.8886V0.5H24.8145V-0.5ZM4.96272 -0.5H0V0.5H4.96272V-0.5ZM536 -1H531.037V1H536V-1ZM521.111 -1H511.185V1H521.111V-1ZM501.259 -1H491.333V1H501.259V-1ZM481.407 -1H471.481V1H481.407V-1ZM461.556 -1H451.63V1H461.556V-1ZM441.704 -1H431.778V1H441.704V-1ZM421.852 -1H411.926V1H421.852V-1ZM402 -1H392.074V1H402V-1ZM382.148 -1H372.222V1H382.148V-1ZM362.296 -1H352.37V1H362.296V-1ZM342.444 -1H332.518V1H342.444V-1ZM322.593 -1H312.667V1H322.593V-1ZM302.741 -1H292.815V1H302.741V-1ZM282.889 -1H272.963V1H282.889V-1ZM263.037 -1H253.111V1H263.037V-1ZM243.185 -1H233.259V1H243.185V-1ZM223.333 -1H213.407V1H223.333V-1ZM203.481 -1H193.555V1H203.481V-1ZM183.629 -1H173.704V1H183.629V-1ZM163.778 -1H153.852V1H163.778V-1ZM143.926 -1H134V1H143.926V-1ZM124.074 -1H114.148V1H124.074V-1ZM104.222 -1H94.2961V1H104.222V-1ZM84.3701 -1H74.4442V1H84.3701V-1ZM64.5182 -1H54.5923V1H64.5182V-1ZM44.6664 -1H34.7404V1H44.6664V-1ZM24.8145 -1H14.8886V1H24.8145V-1ZM4.96272 -1H0V1H4.96272V-1Z" fill="#0C0F0A" fill-opacity="0.3" mask="url(#path-1-inside-1_294_2061)"/>
<path d="M3.632 10V4.544L3.984 4.816H2.336V4.16H4.4V10H3.632ZM8.33538 10.144C7.89804 10.144 7.52471 10.0693 7.21538 9.92C6.91138 9.76533 6.66338 9.55733 6.47138 9.296C6.28471 9.03467 6.14871 8.73333 6.06338 8.392C5.97804 8.04533 5.93538 7.68 5.93538 7.296V6.864C5.93538 6.32533 6.01804 5.84 6.18338 5.408C6.35404 4.976 6.61538 4.63467 6.96738 4.384C7.32471 4.128 7.78071 4 8.33538 4C8.89004 4 9.34338 4.128 9.69538 4.384C10.0474 4.63467 10.306 4.976 10.4714 5.408C10.642 5.84 10.7274 6.32533 10.7274 6.864V7.296C10.7274 7.68 10.6847 8.04533 10.5994 8.392C10.514 8.73333 10.3754 9.03467 10.1834 9.296C9.99671 9.55733 9.75138 9.76533 9.44738 9.92C9.14338 10.0693 8.77271 10.144 8.33538 10.144ZM8.33538 9.44C8.89004 9.44 9.29538 9.25333 9.55138 8.88C9.81271 8.50133 9.94338 7.904 9.94338 7.088C9.94338 6.23467 9.81004 5.624 9.54338 5.256C9.28204 4.888 8.87938 4.704 8.33538 4.704C7.78604 4.704 7.37804 4.888 7.11138 5.256C6.85004 5.624 6.71938 6.22933 6.71938 7.072C6.71938 7.89333 6.85004 8.49333 7.11138 8.872C7.37271 9.25067 7.78071 9.44 8.33538 9.44ZM14.2807 10.144C13.8434 10.144 13.47 10.0693 13.1607 9.92C12.8567 9.76533 12.6087 9.55733 12.4167 9.296C12.23 9.03467 12.094 8.73333 12.0087 8.392C11.9234 8.04533 11.8807 7.68 11.8807 7.296V6.864C11.8807 6.32533 11.9634 5.84 12.1287 5.408C12.2994 4.976 12.5607 4.63467 12.9127 4.384C13.27 4.128 13.726 4 14.2807 4C14.8354 4 15.2887 4.128 15.6407 4.384C15.9927 4.63467 16.2514 4.976 16.4167 5.408C16.5874 5.84 16.6727 6.32533 16.6727 6.864V7.296C16.6727 7.68 16.63 8.04533 16.5447 8.392C16.4594 8.73333 16.3207 9.03467 16.1287 9.296C15.942 9.55733 15.6967 9.76533 15.3927 9.92C15.0887 10.0693 14.718 10.144 14.2807 10.144ZM14.2807 9.44C14.8354 9.44 15.2407 9.25333 15.4967 8.88C15.758 8.50133 15.8887 7.904 15.8887 7.088C15.8887 6.23467 15.7554 5.624 15.4887 5.256C15.2274 4.888 14.8247 4.704 14.2807 4.704C13.7314 4.704 13.3234 4.888 13.0567 5.256C12.7954 5.624 12.6647 6.22933 12.6647 7.072C12.6647 7.89333 12.7954 8.49333 13.0567 8.872C13.318 9.25067 13.726 9.44 14.2807 9.44ZM20.226 10.144C19.7887 10.144 19.4153 10.0693 19.106 9.92C18.802 9.76533 18.554 9.55733 18.362 9.296C18.1753 9.03467 18.0393 8.73333 17.954 8.392C17.8687 8.04533 17.826 7.68 17.826 7.296V6.864C17.826 6.32533 17.9087 5.84 18.074 5.408C18.2447 4.976 18.506 4.63467 18.858 4.384C19.2153 4.128 19.6713 4 20.226 4C20.7807 4 21.234 4.128 21.586 4.384C21.938 4.63467 22.1967 4.976 22.362 5.408C22.5327 5.84 22.618 6.32533 22.618 6.864V7.296C22.618 7.68 22.5753 8.04533 22.49 8.392C22.4047 8.73333 22.266 9.03467 22.074 9.296C21.8873 9.55733 21.642 9.76533 21.338 9.92C21.034 10.0693 20.6633 10.144 20.226 10.144ZM20.226 9.44C20.7807 9.44 21.186 9.25333 21.442 8.88C21.7033 8.50133 21.834 7.904 21.834 7.088C21.834 6.23467 21.7007 5.624 21.434 5.256C21.1727 4.888 20.77 4.704 20.226 4.704C19.6767 4.704 19.2687 4.888 19.002 5.256C18.7407 5.624 18.61 6.22933 18.61 7.072C18.61 7.89333 18.7407 8.49333 19.002 8.872C19.2633 9.25067 19.6713 9.44 20.226 9.44Z" fill="#23550A"/>
<mask id="path-4-inside-2_294_2061" fill="white">
<path d="M0 25.7998H536V51.5998H0V25.7998Z"/>
</mask>
<path d="M536 25.2998H531.037V26.2998H536V25.2998ZM521.111 25.2998H511.185V26.2998H521.111V25.2998ZM501.259 25.2998H491.333V26.2998H501.259V25.2998ZM481.407 25.2998H471.481V26.2998H481.407V25.2998ZM461.556 25.2998H451.63V26.2998H461.556V25.2998ZM441.704 25.2998H431.778V26.2998H441.704V25.2998ZM421.852 25.2998H411.926V26.2998H421.852V25.2998ZM402 25.2998H392.074V26.2998H402V25.2998ZM382.148 25.2998H372.222V26.2998H382.148V25.2998ZM362.296 25.2998H352.37V26.2998H362.296V25.2998ZM342.444 25.2998H332.518V26.2998H342.444V25.2998ZM322.593 25.2998H312.667V26.2998H322.593V25.2998ZM302.741 25.2998H292.815V26.2998H302.741V25.2998ZM282.889 25.2998H272.963V26.2998H282.889V25.2998ZM263.037 25.2998H253.111V26.2998H263.037V25.2998ZM243.185 25.2998H233.259V26.2998H243.185V25.2998ZM223.333 25.2998H213.407V26.2998H223.333V25.2998ZM203.481 25.2998H193.555V26.2998H203.481V25.2998ZM183.629 25.2998H173.704V26.2998H183.629V25.2998ZM163.778 25.2998H153.852V26.2998H163.778V25.2998ZM143.926 25.2998H134V26.2998H143.926V25.2998ZM124.074 25.2998H114.148V26.2998H124.074V25.2998ZM104.222 25.2998H94.2961V26.2998H104.222V25.2998ZM84.3701 25.2998H74.4442V26.2998H84.3701V25.2998ZM64.5182 25.2998H54.5923V26.2998H64.5182V25.2998ZM44.6664 25.2998H34.7404V26.2998H44.6664V25.2998ZM24.8145 25.2998H14.8886V26.2998H24.8145V25.2998ZM4.96272 25.2998H0V26.2998H4.96272V25.2998ZM536 24.7998H531.037V26.7998H536V24.7998ZM521.111 24.7998H511.185V26.7998H521.111V24.7998ZM501.259 24.7998H491.333V26.7998H501.259V24.7998ZM481.407 24.7998H471.481V26.7998H481.407V24.7998ZM461.556 24.7998H451.63V26.7998H461.556V24.7998ZM441.704 24.7998H431.778V26.7998H441.704V24.7998ZM421.852 24.7998H411.926V26.7998H421.852V24.7998ZM402 24.7998H392.074V26.7998H402V24.7998ZM382.148 24.7998H372.222V26.7998H382.148V24.7998ZM362.296 24.7998H352.37V26.7998H362.296V24.7998ZM342.444 24.7998H332.518V26.7998H342.444V24.7998ZM322.593 24.7998H312.667V26.7998H322.593V24.7998ZM302.741 24.7998H292.815V26.7998H302.741V24.7998ZM282.889 24.7998H272.963V26.7998H282.889V24.7998ZM263.037 24.7998H253.111V26.7998H263.037V24.7998ZM243.185 24.7998H233.259V26.7998H243.185V24.7998ZM223.333 24.7998H213.407V26.7998H223.333V24.7998ZM203.481 24.7998H193.555V26.7998H203.481V24.7998ZM183.629 24.7998H173.704V26.7998H183.629V24.7998ZM163.778 24.7998H153.852V26.7998H163.778V24.7998ZM143.926 24.7998H134V26.7998H143.926V24.7998ZM124.074 24.7998H114.148V26.7998H124.074V24.7998ZM104.222 24.7998H94.2961V26.7998H104.222V24.7998ZM84.3701 24.7998H74.4442V26.7998H84.3701V24.7998ZM64.5182 24.7998H54.5923V26.7998H64.5182V24.7998ZM44.6664 24.7998H34.7404V26.7998H44.6664V24.7998ZM24.8145 24.7998H14.8886V26.7998H24.8145V24.7998ZM4.96272 24.7998H0V26.7998H4.96272V24.7998Z" fill="#0C0F0A" fill-opacity="0.3" mask="url(#path-4-inside-2_294_2061)"/>
<path d="M4.48 29.7998C4.90667 29.7998 5.26133 29.8745 5.544 30.0238C5.832 30.1731 6.05867 30.3785 6.224 30.6398C6.39467 30.8958 6.51467 31.1918 6.584 31.5278C6.65867 31.8638 6.696 32.2158 6.696 32.5838V32.9678C6.696 33.8905 6.46667 34.6025 6.008 35.1038C5.54933 35.5998 4.88533 35.8478 4.016 35.8478C3.808 35.8478 3.632 35.8425 3.488 35.8318C3.344 35.8211 3.18667 35.8051 3.016 35.7838V35.1278C3.192 35.1491 3.35467 35.1651 3.504 35.1758C3.65333 35.1865 3.83467 35.1918 4.048 35.1918C4.53333 35.1918 4.91733 35.1011 5.2 34.9198C5.48267 34.7385 5.68533 34.4798 5.808 34.1438C5.93067 33.8025 5.992 33.3918 5.992 32.9118V32.5518L6.184 31.8398C6.17867 32.2611 6.096 32.6105 5.936 32.8878C5.78133 33.1651 5.56533 33.3731 5.288 33.5118C5.016 33.6505 4.70133 33.7198 4.344 33.7198C3.928 33.7198 3.576 33.6371 3.288 33.4718C3 33.3011 2.78133 33.0691 2.632 32.7758C2.488 32.4825 2.416 32.1491 2.416 31.7758C2.416 31.3971 2.49333 31.0585 2.648 30.7598C2.80267 30.4611 3.032 30.2265 3.336 30.0558C3.64533 29.8851 4.02667 29.7998 4.48 29.7998ZM4.48 30.4718C4.18667 30.4718 3.94133 30.5278 3.744 30.6398C3.54667 30.7518 3.39733 30.9065 3.296 31.1038C3.2 31.2958 3.152 31.5198 3.152 31.7758C3.152 32.0318 3.2 32.2585 3.296 32.4558C3.392 32.6531 3.53333 32.8078 3.72 32.9198C3.912 33.0265 4.14667 33.0798 4.424 33.0798C4.696 33.0798 4.93867 33.0291 5.152 32.9278C5.37067 32.8265 5.54133 32.6798 5.664 32.4878C5.78667 32.2905 5.848 32.0505 5.848 31.7678C5.848 31.5331 5.8 31.3171 5.704 31.1198C5.608 30.9225 5.45867 30.7651 5.256 30.6478C5.05333 30.5305 4.79467 30.4718 4.48 30.4718ZM10.2494 35.9438C9.8121 35.9438 9.43877 35.8691 9.12944 35.7198C8.82544 35.5651 8.57744 35.3571 8.38544 35.0958C8.19877 34.8345 8.06277 34.5331 7.97744 34.1918C7.8921 33.8451 7.84944 33.4798 7.84944 33.0958V32.6638C7.84944 32.1251 7.9321 31.6398 8.09744 31.2078C8.2681 30.7758 8.52944 30.4345 8.88144 30.1838C9.23877 29.9278 9.69477 29.7998 10.2494 29.7998C10.8041 29.7998 11.2574 29.9278 11.6094 30.1838C11.9614 30.4345 12.2201 30.7758 12.3854 31.2078C12.5561 31.6398 12.6414 32.1251 12.6414 32.6638V33.0958C12.6414 33.4798 12.5988 33.8451 12.5134 34.1918C12.4281 34.5331 12.2894 34.8345 12.0974 35.0958C11.9108 35.3571 11.6654 35.5651 11.3614 35.7198C11.0574 35.8691 10.6868 35.9438 10.2494 35.9438ZM10.2494 35.2398C10.8041 35.2398 11.2094 35.0531 11.4654 34.6798C11.7268 34.3011 11.8574 33.7038 11.8574 32.8878C11.8574 32.0345 11.7241 31.4238 11.4574 31.0558C11.1961 30.6878 10.7934 30.5038 10.2494 30.5038C9.7001 30.5038 9.2921 30.6878 9.02544 31.0558C8.7641 31.4238 8.63344 32.0291 8.63344 32.8718C8.63344 33.6931 8.7641 34.2931 9.02544 34.6718C9.28677 35.0505 9.69477 35.2398 10.2494 35.2398ZM16.1948 35.9438C15.7574 35.9438 15.3841 35.8691 15.0748 35.7198C14.7708 35.5651 14.5228 35.3571 14.3308 35.0958C14.1441 34.8345 14.0081 34.5331 13.9228 34.1918C13.8374 33.8451 13.7948 33.4798 13.7948 33.0958V32.6638C13.7948 32.1251 13.8774 31.6398 14.0428 31.2078C14.2134 30.7758 14.4748 30.4345 14.8268 30.1838C15.1841 29.9278 15.6401 29.7998 16.1948 29.7998C16.7494 29.7998 17.2028 29.9278 17.5548 30.1838C17.9068 30.4345 18.1654 30.7758 18.3308 31.2078C18.5014 31.6398 18.5868 32.1251 18.5868 32.6638V33.0958C18.5868 33.4798 18.5441 33.8451 18.4588 34.1918C18.3734 34.5331 18.2348 34.8345 18.0428 35.0958C17.8561 35.3571 17.6108 35.5651 17.3068 35.7198C17.0028 35.8691 16.6321 35.9438 16.1948 35.9438ZM16.1948 35.2398C16.7494 35.2398 17.1548 35.0531 17.4108 34.6798C17.6721 34.3011 17.8028 33.7038 17.8028 32.8878C17.8028 32.0345 17.6694 31.4238 17.4028 31.0558C17.1414 30.6878 16.7388 30.5038 16.1948 30.5038C15.6454 30.5038 15.2374 30.6878 14.9708 31.0558C14.7094 31.4238 14.5788 32.0291 14.5788 32.8718C14.5788 33.6931 14.7094 34.2931 14.9708 34.6718C15.2321 35.0505 15.6401 35.2398 16.1948 35.2398Z" fill="#23550A"/>
<mask id="path-7-inside-3_294_2061" fill="white">
<path d="M0 51.6001H536V77.4001H0V51.6001Z"/>
</mask>
<path d="M536 51.1001H531.037V52.1001H536V51.1001ZM521.111 51.1001H511.185V52.1001H521.111V51.1001ZM501.259 51.1001H491.333V52.1001H501.259V51.1001ZM481.407 51.1001H471.481V52.1001H481.407V51.1001ZM461.556 51.1001H451.63V52.1001H461.556V51.1001ZM441.704 51.1001H431.778V52.1001H441.704V51.1001ZM421.852 51.1001H411.926V52.1001H421.852V51.1001ZM402 51.1001H392.074V52.1001H402V51.1001ZM382.148 51.1001H372.222V52.1001H382.148V51.1001ZM362.296 51.1001H352.37V52.1001H362.296V51.1001ZM342.444 51.1001H332.518V52.1001H342.444V51.1001ZM322.593 51.1001H312.667V52.1001H322.593V51.1001ZM302.741 51.1001H292.815V52.1001H302.741V51.1001ZM282.889 51.1001H272.963V52.1001H282.889V51.1001ZM263.037 51.1001H253.111V52.1001H263.037V51.1001ZM243.185 51.1001H233.259V52.1001H243.185V51.1001ZM223.333 51.1001H213.407V52.1001H223.333V51.1001ZM203.481 51.1001H193.555V52.1001H203.481V51.1001ZM183.629 51.1001H173.704V52.1001H183.629V51.1001ZM163.778 51.1001H153.852V52.1001H163.778V51.1001ZM143.926 51.1001H134V52.1001H143.926V51.1001ZM124.074 51.1001H114.148V52.1001H124.074V51.1001ZM104.222 51.1001H94.2961V52.1001H104.222V51.1001ZM84.3701 51.1001H74.4442V52.1001H84.3701V51.1001ZM64.5182 51.1001H54.5923V52.1001H64.5182V51.1001ZM44.6664 51.1001H34.7404V52.1001H44.6664V51.1001ZM24.8145 51.1001H14.8886V52.1001H24.8145V51.1001ZM4.96272 51.1001H0V52.1001H4.96272V51.1001ZM536 50.6001H531.037V52.6001H536V50.6001ZM521.111 50.6001H511.185V52.6001H521.111V50.6001ZM501.259 50.6001H491.333V52.6001H501.259V50.6001ZM481.407 50.6001H471.481V52.6001H481.407V50.6001ZM461.556 50.6001H451.63V52.6001H461.556V50.6001ZM441.704 50.6001H431.778V52.6001H441.704V50.6001ZM421.852 50.6001H411.926V52.6001H421.852V50.6001ZM402 50.6001H392.074V52.6001H402V50.6001ZM382.148 50.6001H372.222V52.6001H382.148V50.6001ZM362.296 50.6001H352.37V52.6001H362.296V50.6001ZM342.444 50.6001H332.518V52.6001H342.444V50.6001ZM322.593 50.6001H312.667V52.6001H322.593V50.6001ZM302.741 50.6001H292.815V52.6001H302.741V50.6001ZM282.889 50.6001H272.963V52.6001H282.889V50.6001ZM263.037 50.6001H253.111V52.6001H263.037V50.6001ZM243.185 50.6001H233.259V52.6001H243.185V50.6001ZM223.333 50.6001H213.407V52.6001H223.333V50.6001ZM203.481 50.6001H193.555V52.6001H203.481V50.6001ZM183.629 50.6001H173.704V52.6001H183.629V50.6001ZM163.778 50.6001H153.852V52.6001H163.778V50.6001ZM143.926 50.6001H134V52.6001H143.926V50.6001ZM124.074 50.6001H114.148V52.6001H124.074V50.6001ZM104.222 50.6001H94.2961V52.6001H104.222V50.6001ZM84.3701 50.6001H74.4442V52.6001H84.3701V50.6001ZM64.5182 50.6001H54.5923V52.6001H64.5182V50.6001ZM44.6664 50.6001H34.7404V52.6001H44.6664V50.6001ZM24.8145 50.6001H14.8886V52.6001H24.8145V50.6001ZM4.96272 50.6001H0V52.6001H4.96272V50.6001Z" fill="#0C0F0A" fill-opacity="0.3" mask="url(#path-7-inside-3_294_2061)"/>
<path d="M4.544 61.7441C4.128 61.7441 3.75733 61.6694 3.432 61.5201C3.112 61.3708 2.85867 61.1628 2.672 60.8961C2.49067 60.6294 2.4 60.3201 2.4 59.9681C2.4 59.7334 2.44533 59.5228 2.536 59.3361C2.62667 59.1441 2.752 58.9788 2.912 58.8401C3.072 58.7014 3.25333 58.5948 3.456 58.5201V58.4401C3.296 58.3708 3.14933 58.2774 3.016 58.1601C2.888 58.0428 2.784 57.9041 2.704 57.7441C2.62933 57.5841 2.592 57.4028 2.592 57.2001C2.592 56.8641 2.68 56.5788 2.856 56.3441C3.03733 56.1094 3.27467 55.9308 3.568 55.8081C3.86667 55.6801 4.192 55.6161 4.544 55.6161C4.90133 55.6161 5.22667 55.6801 5.52 55.8081C5.81867 55.9308 6.056 56.1094 6.232 56.3441C6.408 56.5788 6.496 56.8641 6.496 57.2001C6.496 57.4028 6.45867 57.5841 6.384 57.7441C6.30933 57.9041 6.20533 58.0428 6.072 58.1601C5.944 58.2774 5.79733 58.3708 5.632 58.4401V58.5201C5.84 58.5948 6.024 58.7041 6.184 58.8481C6.344 58.9868 6.46933 59.1521 6.56 59.3441C6.65067 59.5308 6.696 59.7388 6.696 59.9681C6.696 60.3201 6.60267 60.6294 6.416 60.8961C6.23467 61.1628 5.98133 61.3708 5.656 61.5201C5.336 61.6694 4.96533 61.7441 4.544 61.7441ZM4.544 61.0881C4.83733 61.0881 5.088 61.0428 5.296 60.9521C5.504 60.8561 5.664 60.7228 5.776 60.5521C5.888 60.3761 5.944 60.1708 5.944 59.9361C5.944 59.7014 5.888 59.4988 5.776 59.3281C5.66933 59.1574 5.512 59.0268 5.304 58.9361C5.096 58.8401 4.84267 58.7921 4.544 58.7921C4.25067 58.7921 4 58.8401 3.792 58.9361C3.584 59.0268 3.424 59.1574 3.312 59.3281C3.20533 59.4988 3.152 59.7014 3.152 59.9361C3.152 60.1708 3.20533 60.3761 3.312 60.5521C3.424 60.7228 3.584 60.8561 3.792 60.9521C4 61.0428 4.25067 61.0881 4.544 61.0881ZM4.544 58.1841C4.90667 58.1841 5.19733 58.1068 5.416 57.9521C5.63467 57.7921 5.744 57.5494 5.744 57.2241C5.744 56.8934 5.632 56.6534 5.408 56.5041C5.18933 56.3494 4.90133 56.2721 4.544 56.2721C4.18667 56.2721 3.896 56.3494 3.672 56.5041C3.45333 56.6588 3.344 56.8988 3.344 57.2241C3.344 57.5494 3.45333 57.7921 3.672 57.9521C3.896 58.1068 4.18667 58.1841 4.544 58.1841ZM10.0698 61.7441C9.63242 61.7441 9.25908 61.6694 8.94975 61.5201C8.64575 61.3654 8.39775 61.1574 8.20575 60.8961C8.01908 60.6348 7.88308 60.3334 7.79775 59.9921C7.71242 59.6454 7.66975 59.2801 7.66975 58.8961V58.4641C7.66975 57.9254 7.75242 57.4401 7.91775 57.0081C8.08842 56.5761 8.34975 56.2348 8.70175 55.9841C9.05908 55.7281 9.51508 55.6001 10.0698 55.6001C10.6244 55.6001 11.0778 55.7281 11.4298 55.9841C11.7818 56.2348 12.0404 56.5761 12.2058 57.0081C12.3764 57.4401 12.4618 57.9254 12.4618 58.4641V58.8961C12.4618 59.2801 12.4191 59.6454 12.3338 59.9921C12.2484 60.3334 12.1098 60.6348 11.9178 60.8961C11.7311 61.1574 11.4858 61.3654 11.1818 61.5201C10.8778 61.6694 10.5071 61.7441 10.0698 61.7441ZM10.0698 61.0401C10.6244 61.0401 11.0298 60.8534 11.2858 60.4801C11.5471 60.1014 11.6778 59.5041 11.6778 58.6881C11.6778 57.8348 11.5444 57.2241 11.2778 56.8561C11.0164 56.4881 10.6138 56.3041 10.0698 56.3041C9.52042 56.3041 9.11242 56.4881 8.84575 56.8561C8.58442 57.2241 8.45375 57.8294 8.45375 58.6721C8.45375 59.4934 8.58442 60.0934 8.84575 60.4721C9.10708 60.8508 9.51508 61.0401 10.0698 61.0401ZM16.0151 61.7441C15.5777 61.7441 15.2044 61.6694 14.8951 61.5201C14.5911 61.3654 14.3431 61.1574 14.1511 60.8961C13.9644 60.6348 13.8284 60.3334 13.7431 59.9921C13.6577 59.6454 13.6151 59.2801 13.6151 58.8961V58.4641C13.6151 57.9254 13.6977 57.4401 13.8631 57.0081C14.0337 56.5761 14.2951 56.2348 14.6471 55.9841C15.0044 55.7281 15.4604 55.6001 16.0151 55.6001C16.5697 55.6001 17.0231 55.7281 17.3751 55.9841C17.7271 56.2348 17.9857 56.5761 18.1511 57.0081C18.3217 57.4401 18.4071 57.9254 18.4071 58.4641V58.8961C18.4071 59.2801 18.3644 59.6454 18.2791 59.9921C18.1937 60.3334 18.0551 60.6348 17.8631 60.8961C17.6764 61.1574 17.4311 61.3654 17.1271 61.5201C16.8231 61.6694 16.4524 61.7441 16.0151 61.7441ZM16.0151 61.0401C16.5697 61.0401 16.9751 60.8534 17.2311 60.4801C17.4924 60.1014 17.6231 59.5041 17.6231 58.6881C17.6231 57.8348 17.4897 57.2241 17.2231 56.8561C16.9617 56.4881 16.5591 56.3041 16.0151 56.3041C15.4657 56.3041 15.0577 56.4881 14.7911 56.8561C14.5297 57.2241 14.3991 57.8294 14.3991 58.6721C14.3991 59.4934 14.5297 60.0934 14.7911 60.4721C15.0524 60.8508 15.4604 61.0401 16.0151 61.0401Z" fill="#23550A"/>
<mask id="path-10-inside-4_294_2061" fill="white">
<path d="M0 77.3999H536V103.2H0V77.3999Z"/>
</mask>
<path d="M536 76.8999H531.037V77.8999H536V76.8999ZM521.111 76.8999H511.185V77.8999H521.111V76.8999ZM501.259 76.8999H491.333V77.8999H501.259V76.8999ZM481.407 76.8999H471.481V77.8999H481.407V76.8999ZM461.556 76.8999H451.63V77.8999H461.556V76.8999ZM441.704 76.8999H431.778V77.8999H441.704V76.8999ZM421.852 76.8999H411.926V77.8999H421.852V76.8999ZM402 76.8999H392.074V77.8999H402V76.8999ZM382.148 76.8999H372.222V77.8999H382.148V76.8999ZM362.296 76.8999H352.37V77.8999H362.296V76.8999ZM342.444 76.8999H332.518V77.8999H342.444V76.8999ZM322.593 76.8999H312.667V77.8999H322.593V76.8999ZM302.741 76.8999H292.815V77.8999H302.741V76.8999ZM282.889 76.8999H272.963V77.8999H282.889V76.8999ZM263.037 76.8999H253.111V77.8999H263.037V76.8999ZM243.185 76.8999H233.259V77.8999H243.185V76.8999ZM223.333 76.8999H213.407V77.8999H223.333V76.8999ZM203.481 76.8999H193.555V77.8999H203.481V76.8999ZM183.629 76.8999H173.704V77.8999H183.629V76.8999ZM163.778 76.8999H153.852V77.8999H163.778V76.8999ZM143.926 76.8999H134V77.8999H143.926V76.8999ZM124.074 76.8999H114.148V77.8999H124.074V76.8999ZM104.222 76.8999H94.2961V77.8999H104.222V76.8999ZM84.3701 76.8999H74.4442V77.8999H84.3701V76.8999ZM64.5182 76.8999H54.5923V77.8999H64.5182V76.8999ZM44.6664 76.8999H34.7404V77.8999H44.6664V76.8999ZM24.8145 76.8999H14.8886V77.8999H24.8145V76.8999ZM4.96272 76.8999H0V77.8999H4.96272V76.8999ZM536 76.3999H531.037V78.3999H536V76.3999ZM521.111 76.3999H511.185V78.3999H521.111V76.3999ZM501.259 76.3999H491.333V78.3999H501.259V76.3999ZM481.407 76.3999H471.481V78.3999H481.407V76.3999ZM461.556 76.3999H451.63V78.3999H461.556V76.3999ZM441.704 76.3999H431.778V78.3999H441.704V76.3999ZM421.852 76.3999H411.926V78.3999H421.852V76.3999ZM402 76.3999H392.074V78.3999H402V76.3999ZM382.148 76.3999H372.222V78.3999H382.148V76.3999ZM362.296 76.3999H352.37V78.3999H362.296V76.3999ZM342.444 76.3999H332.518V78.3999H342.444V76.3999ZM322.593 76.3999H312.667V78.3999H322.593V76.3999ZM302.741 76.3999H292.815V78.3999H302.741V76.3999ZM282.889 76.3999H272.963V78.3999H282.889V76.3999ZM263.037 76.3999H253.111V78.3999H263.037V76.3999ZM243.185 76.3999H233.259V78.3999H243.185V76.3999ZM223.333 76.3999H213.407V78.3999H223.333V76.3999ZM203.481 76.3999H193.555V78.3999H203.481V76.3999ZM183.629 76.3999H173.704V78.3999H183.629V76.3999ZM163.778 76.3999H153.852V78.3999H163.778V76.3999ZM143.926 76.3999H134V78.3999H143.926V76.3999ZM124.074 76.3999H114.148V78.3999H124.074V76.3999ZM104.222 76.3999H94.2961V78.3999H104.222V76.3999ZM84.3701 76.3999H74.4442V78.3999H84.3701V76.3999ZM64.5182 76.3999H54.5923V78.3999H64.5182V76.3999ZM44.6664 76.3999H34.7404V78.3999H44.6664V76.3999ZM24.8145 76.3999H14.8886V78.3999H24.8145V76.3999ZM4.96272 76.3999H0V78.3999H4.96272V76.3999Z" fill="#0C0F0A" fill-opacity="0.3" mask="url(#path-10-inside-4_294_2061)"/>
<path d="M3.152 87.3999L5.624 82.2879L5.576 82.2159H2.384V81.5599H6.304V82.4879L3.952 87.3999H3.152ZM2.384 83.1439V81.5599H3.024V83.1439H2.384ZM9.56975 87.5439C9.13242 87.5439 8.75908 87.4692 8.44975 87.3199C8.14575 87.1652 7.89775 86.9572 7.70575 86.6959C7.51908 86.4346 7.38308 86.1332 7.29775 85.7919C7.21242 85.4452 7.16975 85.0799 7.16975 84.6959V84.2639C7.16975 83.7252 7.25242 83.2399 7.41775 82.8079C7.58842 82.3759 7.84975 82.0346 8.20175 81.7839C8.55908 81.5279 9.01508 81.3999 9.56975 81.3999C10.1244 81.3999 10.5778 81.5279 10.9298 81.7839C11.2818 82.0346 11.5404 82.3759 11.7058 82.8079C11.8764 83.2399 11.9618 83.7252 11.9618 84.2639V84.6959C11.9618 85.0799 11.9191 85.4452 11.8338 85.7919C11.7484 86.1332 11.6098 86.4346 11.4178 86.6959C11.2311 86.9572 10.9858 87.1652 10.6818 87.3199C10.3778 87.4692 10.0071 87.5439 9.56975 87.5439ZM9.56975 86.8399C10.1244 86.8399 10.5298 86.6532 10.7858 86.2799C11.0471 85.9012 11.1778 85.3039 11.1778 84.4879C11.1778 83.6346 11.0444 83.0239 10.7778 82.6559C10.5164 82.2879 10.1138 82.1039 9.56975 82.1039C9.02042 82.1039 8.61242 82.2879 8.34575 82.6559C8.08442 83.0239 7.95375 83.6292 7.95375 84.4719C7.95375 85.2932 8.08442 85.8932 8.34575 86.2719C8.60708 86.6506 9.01508 86.8399 9.56975 86.8399ZM15.5151 87.5439C15.0777 87.5439 14.7044 87.4692 14.3951 87.3199C14.0911 87.1652 13.8431 86.9572 13.6511 86.6959C13.4644 86.4346 13.3284 86.1332 13.2431 85.7919C13.1577 85.4452 13.1151 85.0799 13.1151 84.6959V84.2639C13.1151 83.7252 13.1977 83.2399 13.3631 82.8079C13.5337 82.3759 13.7951 82.0346 14.1471 81.7839C14.5044 81.5279 14.9604 81.3999 15.5151 81.3999C16.0697 81.3999 16.5231 81.5279 16.8751 81.7839C17.2271 82.0346 17.4857 82.3759 17.6511 82.8079C17.8217 83.2399 17.9071 83.7252 17.9071 84.2639V84.6959C17.9071 85.0799 17.8644 85.4452 17.7791 85.7919C17.6937 86.1332 17.5551 86.4346 17.3631 86.6959C17.1764 86.9572 16.9311 87.1652 16.6271 87.3199C16.3231 87.4692 15.9524 87.5439 15.5151 87.5439ZM15.5151 86.8399C16.0697 86.8399 16.4751 86.6532 16.7311 86.2799C16.9924 85.9012 17.1231 85.3039 17.1231 84.4879C17.1231 83.6346 16.9897 83.0239 16.7231 82.6559C16.4617 82.2879 16.0591 82.1039 15.5151 82.1039C14.9657 82.1039 14.5577 82.2879 14.2911 82.6559C14.0297 83.0239 13.8991 83.6292 13.8991 84.4719C13.8991 85.2932 14.0297 85.8932 14.2911 86.2719C14.5524 86.6506 14.9604 86.8399 15.5151 86.8399Z" fill="#23550A"/>
<mask id="path-13-inside-5_294_2061" fill="white">
<path d="M0 103.2H536V129H0V103.2Z"/>
</mask>
<path d="M536 102.7H531.037V103.7H536V102.7ZM521.111 102.7H511.185V103.7H521.111V102.7ZM501.259 102.7H491.333V103.7H501.259V102.7ZM481.407 102.7H471.481V103.7H481.407V102.7ZM461.556 102.7H451.63V103.7H461.556V102.7ZM441.704 102.7H431.778V103.7H441.704V102.7ZM421.852 102.7H411.926V103.7H421.852V102.7ZM402 102.7H392.074V103.7H402V102.7ZM382.148 102.7H372.222V103.7H382.148V102.7ZM362.296 102.7H352.37V103.7H362.296V102.7ZM342.444 102.7H332.518V103.7H342.444V102.7ZM322.593 102.7H312.667V103.7H322.593V102.7ZM302.741 102.7H292.815V103.7H302.741V102.7ZM282.889 102.7H272.963V103.7H282.889V102.7ZM263.037 102.7H253.111V103.7H263.037V102.7ZM243.185 102.7H233.259V103.7H243.185V102.7ZM223.333 102.7H213.407V103.7H223.333V102.7ZM203.481 102.7H193.555V103.7H203.481V102.7ZM183.629 102.7H173.704V103.7H183.629V102.7ZM163.778 102.7H153.852V103.7H163.778V102.7ZM143.926 102.7H134V103.7H143.926V102.7ZM124.074 102.7H114.148V103.7H124.074V102.7ZM104.222 102.7H94.2961V103.7H104.222V102.7ZM84.3701 102.7H74.4442V103.7H84.3701V102.7ZM64.5182 102.7H54.5923V103.7H64.5182V102.7ZM44.6664 102.7H34.7404V103.7H44.6664V102.7ZM24.8145 102.7H14.8886V103.7H24.8145V102.7ZM4.96272 102.7H0V103.7H4.96272V102.7ZM536 102.2H531.037V104.2H536V102.2ZM521.111 102.2H511.185V104.2H521.111V102.2ZM501.259 102.2H491.333V104.2H501.259V102.2ZM481.407 102.2H471.481V104.2H481.407V102.2ZM461.556 102.2H451.63V104.2H461.556V102.2ZM441.704 102.2H431.778V104.2H441.704V102.2ZM421.852 102.2H411.926V104.2H421.852V102.2ZM402 102.2H392.074V104.2H402V102.2ZM382.148 102.2H372.222V104.2H382.148V102.2ZM362.296 102.2H352.37V104.2H362.296V102.2ZM342.444 102.2H332.518V104.2H342.444V102.2ZM322.593 102.2H312.667V104.2H322.593V102.2ZM302.741 102.2H292.815V104.2H302.741V102.2ZM282.889 102.2H272.963V104.2H282.889V102.2ZM263.037 102.2H253.111V104.2H263.037V102.2ZM243.185 102.2H233.259V104.2H243.185V102.2ZM223.333 102.2H213.407V104.2H223.333V102.2ZM203.481 102.2H193.555V104.2H203.481V102.2ZM183.629 102.2H173.704V104.2H183.629V102.2ZM163.778 102.2H153.852V104.2H163.778V102.2ZM143.926 102.2H134V104.2H143.926V102.2ZM124.074 102.2H114.148V104.2H124.074V102.2ZM104.222 102.2H94.2961V104.2H104.222V102.2ZM84.3701 102.2H74.4442V104.2H84.3701V102.2ZM64.5182 102.2H54.5923V104.2H64.5182V102.2ZM44.6664 102.2H34.7404V104.2H44.6664V102.2ZM24.8145 102.2H14.8886V104.2H24.8145V102.2ZM4.96272 102.2H0V104.2H4.96272V102.2Z" fill="#0C0F0A" fill-opacity="0.3" mask="url(#path-13-inside-5_294_2061)"/>
<path d="M4.792 113.36C4.36533 113.36 4.008 113.286 3.72 113.136C3.43733 112.987 3.21067 112.784 3.04 112.528C2.87467 112.267 2.75467 111.968 2.68 111.632C2.61067 111.296 2.576 110.944 2.576 110.576V110.192C2.576 109.27 2.80533 108.56 3.264 108.064C3.72267 107.563 4.38667 107.312 5.256 107.312C5.464 107.312 5.64 107.318 5.784 107.328C5.928 107.339 6.08533 107.355 6.256 107.376V108.032C6.08 108.011 5.91733 107.995 5.768 107.984C5.61867 107.974 5.43733 107.968 5.224 107.968C4.73867 107.968 4.35467 108.059 4.072 108.24C3.78933 108.422 3.58667 108.683 3.464 109.024C3.34133 109.36 3.28 109.768 3.28 110.248V110.608L3.088 111.32C3.09333 110.899 3.17333 110.55 3.328 110.272C3.488 109.995 3.704 109.787 3.976 109.648C4.25333 109.51 4.57067 109.44 4.928 109.44C5.344 109.44 5.696 109.526 5.984 109.696C6.272 109.862 6.488 110.091 6.632 110.384C6.78133 110.678 6.856 111.011 6.856 111.384C6.856 111.763 6.77867 112.102 6.624 112.4C6.46933 112.699 6.23733 112.934 5.928 113.104C5.624 113.275 5.24533 113.36 4.792 113.36ZM4.792 112.688C5.08533 112.688 5.33067 112.632 5.528 112.52C5.72533 112.408 5.872 112.256 5.968 112.064C6.06933 111.867 6.12 111.64 6.12 111.384C6.12 111.128 6.072 110.902 5.976 110.704C5.88 110.507 5.736 110.355 5.544 110.248C5.35733 110.136 5.12533 110.08 4.848 110.08C4.576 110.08 4.33067 110.131 4.112 110.232C3.89867 110.334 3.73067 110.483 3.608 110.68C3.48533 110.872 3.424 111.11 3.424 111.392C3.424 111.627 3.472 111.843 3.568 112.04C3.664 112.238 3.81333 112.395 4.016 112.512C4.21867 112.63 4.47733 112.688 4.792 112.688ZM10.2494 113.344C9.8121 113.344 9.43877 113.27 9.12944 113.12C8.82544 112.966 8.57744 112.758 8.38544 112.496C8.19877 112.235 8.06277 111.934 7.97744 111.592C7.8921 111.246 7.84944 110.88 7.84944 110.496V110.064C7.84944 109.526 7.9321 109.04 8.09744 108.608C8.2681 108.176 8.52944 107.835 8.88144 107.584C9.23877 107.328 9.69477 107.2 10.2494 107.2C10.8041 107.2 11.2574 107.328 11.6094 107.584C11.9614 107.835 12.2201 108.176 12.3854 108.608C12.5561 109.04 12.6414 109.526 12.6414 110.064V110.496C12.6414 110.88 12.5988 111.246 12.5134 111.592C12.4281 111.934 12.2894 112.235 12.0974 112.496C11.9108 112.758 11.6654 112.966 11.3614 113.12C11.0574 113.27 10.6868 113.344 10.2494 113.344ZM10.2494 112.64C10.8041 112.64 11.2094 112.454 11.4654 112.08C11.7268 111.702 11.8574 111.104 11.8574 110.288C11.8574 109.435 11.7241 108.824 11.4574 108.456C11.1961 108.088 10.7934 107.904 10.2494 107.904C9.7001 107.904 9.2921 108.088 9.02544 108.456C8.7641 108.824 8.63344 109.43 8.63344 110.272C8.63344 111.094 8.7641 111.694 9.02544 112.072C9.28677 112.451 9.69477 112.64 10.2494 112.64ZM16.1948 113.344C15.7574 113.344 15.3841 113.27 15.0748 113.12C14.7708 112.966 14.5228 112.758 14.3308 112.496C14.1441 112.235 14.0081 111.934 13.9228 111.592C13.8374 111.246 13.7948 110.88 13.7948 110.496V110.064C13.7948 109.526 13.8774 109.04 14.0428 108.608C14.2134 108.176 14.4748 107.835 14.8268 107.584C15.1841 107.328 15.6401 107.2 16.1948 107.2C16.7494 107.2 17.2028 107.328 17.5548 107.584C17.9068 107.835 18.1654 108.176 18.3308 108.608C18.5014 109.04 18.5868 109.526 18.5868 110.064V110.496C18.5868 110.88 18.5441 111.246 18.4588 111.592C18.3734 111.934 18.2348 112.235 18.0428 112.496C17.8561 112.758 17.6108 112.966 17.3068 113.12C17.0028 113.27 16.6321 113.344 16.1948 113.344ZM16.1948 112.64C16.7494 112.64 17.1548 112.454 17.4108 112.08C17.6721 111.702 17.8028 111.104 17.8028 110.288C17.8028 109.435 17.6694 108.824 17.4028 108.456C17.1414 108.088 16.7388 107.904 16.1948 107.904C15.6454 107.904 15.2374 108.088 14.9708 108.456C14.7094 108.824 14.5788 109.43 14.5788 110.272C14.5788 111.094 14.7094 111.694 14.9708 112.072C15.2321 112.451 15.6401 112.64 16.1948 112.64Z" fill="#23550A"/>
<mask id="path-16-inside-6_294_2061" fill="white">
<path d="M0 129H536V154.8H0V129Z"/>
</mask>
<path d="M536 128.5H531.037V129.5H536V128.5ZM521.111 128.5H511.185V129.5H521.111V128.5ZM501.259 128.5H491.333V129.5H501.259V128.5ZM481.407 128.5H471.481V129.5H481.407V128.5ZM461.556 128.5H451.63V129.5H461.556V128.5ZM441.704 128.5H431.778V129.5H441.704V128.5ZM421.852 128.5H411.926V129.5H421.852V128.5ZM402 128.5H392.074V129.5H402V128.5ZM382.148 128.5H372.222V129.5H382.148V128.5ZM362.296 128.5H352.37V129.5H362.296V128.5ZM342.444 128.5H332.518V129.5H342.444V128.5ZM322.593 128.5H312.667V129.5H322.593V128.5ZM302.741 128.5H292.815V129.5H302.741V128.5ZM282.889 128.5H272.963V129.5H282.889V128.5ZM263.037 128.5H253.111V129.5H263.037V128.5ZM243.185 128.5H233.259V129.5H243.185V128.5ZM223.333 128.5H213.407V129.5H223.333V128.5ZM203.481 128.5H193.555V129.5H203.481V128.5ZM183.629 128.5H173.704V129.5H183.629V128.5ZM163.778 128.5H153.852V129.5H163.778V128.5ZM143.926 128.5H134V129.5H143.926V128.5ZM124.074 128.5H114.148V129.5H124.074V128.5ZM104.222 128.5H94.2961V129.5H104.222V128.5ZM84.3701 128.5H74.4442V129.5H84.3701V128.5ZM64.5182 128.5H54.5923V129.5H64.5182V128.5ZM44.6664 128.5H34.7404V129.5H44.6664V128.5ZM24.8145 128.5H14.8886V129.5H24.8145V128.5ZM4.96272 128.5H0V129.5H4.96272V128.5ZM536 128H531.037V130H536V128ZM521.111 128H511.185V130H521.111V128ZM501.259 128H491.333V130H501.259V128ZM481.407 128H471.481V130H481.407V128ZM461.556 128H451.63V130H461.556V128ZM441.704 128H431.778V130H441.704V128ZM421.852 128H411.926V130H421.852V128ZM402 128H392.074V130H402V128ZM382.148 128H372.222V130H382.148V128ZM362.296 128H352.37V130H362.296V128ZM342.444 128H332.518V130H342.444V128ZM322.593 128H312.667V130H322.593V128ZM302.741 128H292.815V130H302.741V128ZM282.889 128H272.963V130H282.889V128ZM263.037 128H253.111V130H263.037V128ZM243.185 128H233.259V130H243.185V128ZM223.333 128H213.407V130H223.333V128ZM203.481 128H193.555V130H203.481V128ZM183.629 128H173.704V130H183.629V128ZM163.778 128H153.852V130H163.778V128ZM143.926 128H134V130H143.926V128ZM124.074 128H114.148V130H124.074V128ZM104.222 128H94.2961V130H104.222V128ZM84.3701 128H74.4442V130H84.3701V128ZM64.5182 128H54.5923V130H64.5182V128ZM44.6664 128H34.7404V130H44.6664V128ZM24.8145 128H14.8886V130H24.8145V128ZM4.96272 128H0V130H4.96272V128Z" fill="#0C0F0A" fill-opacity="0.3" mask="url(#path-16-inside-6_294_2061)"/>
<path d="M4.528 139.144C4.08 139.144 3.70133 139.053 3.392 138.872C3.08267 138.685 2.848 138.443 2.688 138.144C2.528 137.845 2.448 137.528 2.448 137.192H3.2C3.2 137.437 3.25333 137.656 3.36 137.848C3.472 138.04 3.62667 138.192 3.824 138.304C4.02133 138.416 4.256 138.472 4.528 138.472C4.79467 138.472 5.02667 138.419 5.224 138.312C5.42667 138.2 5.584 138.048 5.696 137.856C5.808 137.659 5.864 137.437 5.864 137.192C5.864 136.947 5.808 136.725 5.696 136.528C5.58933 136.331 5.43467 136.173 5.232 136.056C5.03467 135.939 4.8 135.88 4.528 135.88C4.33067 135.88 4.13067 135.915 3.928 135.984C3.72533 136.048 3.56267 136.141 3.44 136.264H2.736L3.032 133.16H6.096V133.816H3.48L3.672 133.552L3.448 135.816L3.24 135.744C3.39467 135.589 3.58133 135.467 3.8 135.376C4.024 135.285 4.27733 135.24 4.56 135.24C5.008 135.24 5.384 135.333 5.688 135.52C5.992 135.701 6.22133 135.939 6.376 136.232C6.536 136.52 6.616 136.821 6.616 137.136V137.248C6.616 137.563 6.536 137.867 6.376 138.16C6.216 138.448 5.97867 138.685 5.664 138.872C5.35467 139.053 4.976 139.144 4.528 139.144ZM9.96038 139.144C9.52304 139.144 9.14971 139.069 8.84038 138.92C8.53638 138.765 8.28838 138.557 8.09638 138.296C7.90971 138.035 7.77371 137.733 7.68838 137.392C7.60304 137.045 7.56038 136.68 7.56038 136.296V135.864C7.56038 135.325 7.64304 134.84 7.80838 134.408C7.97904 133.976 8.24038 133.635 8.59238 133.384C8.94971 133.128 9.40571 133 9.96038 133C10.515 133 10.9684 133.128 11.3204 133.384C11.6724 133.635 11.931 133.976 12.0964 134.408C12.267 134.84 12.3524 135.325 12.3524 135.864V136.296C12.3524 136.68 12.3097 137.045 12.2244 137.392C12.139 137.733 12.0004 138.035 11.8084 138.296C11.6217 138.557 11.3764 138.765 11.0724 138.92C10.7684 139.069 10.3977 139.144 9.96038 139.144ZM9.96038 138.44C10.515 138.44 10.9204 138.253 11.1764 137.88C11.4377 137.501 11.5684 136.904 11.5684 136.088C11.5684 135.235 11.435 134.624 11.1684 134.256C10.907 133.888 10.5044 133.704 9.96038 133.704C9.41104 133.704 9.00304 133.888 8.73638 134.256C8.47504 134.624 8.34438 135.229 8.34438 136.072C8.34438 136.893 8.47504 137.493 8.73638 137.872C8.99771 138.251 9.40571 138.44 9.96038 138.44ZM15.9057 139.144C15.4684 139.144 15.095 139.069 14.7857 138.92C14.4817 138.765 14.2337 138.557 14.0417 138.296C13.855 138.035 13.719 137.733 13.6337 137.392C13.5484 137.045 13.5057 136.68 13.5057 136.296V135.864C13.5057 135.325 13.5884 134.84 13.7537 134.408C13.9244 133.976 14.1857 133.635 14.5377 133.384C14.895 133.128 15.351 133 15.9057 133C16.4604 133 16.9137 133.128 17.2657 133.384C17.6177 133.635 17.8764 133.976 18.0417 134.408C18.2124 134.84 18.2977 135.325 18.2977 135.864V136.296C18.2977 136.68 18.255 137.045 18.1697 137.392C18.0844 137.733 17.9457 138.035 17.7537 138.296C17.567 138.557 17.3217 138.765 17.0177 138.92C16.7137 139.069 16.343 139.144 15.9057 139.144ZM15.9057 138.44C16.4604 138.44 16.8657 138.253 17.1217 137.88C17.383 137.501 17.5137 136.904 17.5137 136.088C17.5137 135.235 17.3804 134.624 17.1137 134.256C16.8524 133.888 16.4497 133.704 15.9057 133.704C15.3564 133.704 14.9484 133.888 14.6817 134.256C14.4204 134.624 14.2897 135.229 14.2897 136.072C14.2897 136.893 14.4204 137.493 14.6817 137.872C14.943 138.251 15.351 138.44 15.9057 138.44Z" fill="#23550A"/>
<mask id="path-19-inside-7_294_2061" fill="white">
<path d="M0 154.8H536V180.6H0V154.8Z"/>
</mask>
<path d="M536 154.3H531.037V155.3H536V154.3ZM521.111 154.3H511.185V155.3H521.111V154.3ZM501.259 154.3H491.333V155.3H501.259V154.3ZM481.407 154.3H471.481V155.3H481.407V154.3ZM461.556 154.3H451.63V155.3H461.556V154.3ZM441.704 154.3H431.778V155.3H441.704V154.3ZM421.852 154.3H411.926V155.3H421.852V154.3ZM402 154.3H392.074V155.3H402V154.3ZM382.148 154.3H372.222V155.3H382.148V154.3ZM362.296 154.3H352.37V155.3H362.296V154.3ZM342.444 154.3H332.518V155.3H342.444V154.3ZM322.593 154.3H312.667V155.3H322.593V154.3ZM302.741 154.3H292.815V155.3H302.741V154.3ZM282.889 154.3H272.963V155.3H282.889V154.3ZM263.037 154.3H253.111V155.3H263.037V154.3ZM243.185 154.3H233.259V155.3H243.185V154.3ZM223.333 154.3H213.407V155.3H223.333V154.3ZM203.481 154.3H193.555V155.3H203.481V154.3ZM183.629 154.3H173.704V155.3H183.629V154.3ZM163.778 154.3H153.852V155.3H163.778V154.3ZM143.926 154.3H134V155.3H143.926V154.3ZM124.074 154.3H114.148V155.3H124.074V154.3ZM104.222 154.3H94.2961V155.3H104.222V154.3ZM84.3701 154.3H74.4442V155.3H84.3701V154.3ZM64.5182 154.3H54.5923V155.3H64.5182V154.3ZM44.6664 154.3H34.7404V155.3H44.6664V154.3ZM24.8145 154.3H14.8886V155.3H24.8145V154.3ZM4.96272 154.3H0V155.3H4.96272V154.3ZM536 153.8H531.037V155.8H536V153.8ZM521.111 153.8H511.185V155.8H521.111V153.8ZM501.259 153.8H491.333V155.8H501.259V153.8ZM481.407 153.8H471.481V155.8H481.407V153.8ZM461.556 153.8H451.63V155.8H461.556V153.8ZM441.704 153.8H431.778V155.8H441.704V153.8ZM421.852 153.8H411.926V155.8H421.852V153.8ZM402 153.8H392.074V155.8H402V153.8ZM382.148 153.8H372.222V155.8H382.148V153.8ZM362.296 153.8H352.37V155.8H362.296V153.8ZM342.444 153.8H332.518V155.8H342.444V153.8ZM322.593 153.8H312.667V155.8H322.593V153.8ZM302.741 153.8H292.815V155.8H302.741V153.8ZM282.889 153.8H272.963V155.8H282.889V153.8ZM263.037 153.8H253.111V155.8H263.037V153.8ZM243.185 153.8H233.259V155.8H243.185V153.8ZM223.333 153.8H213.407V155.8H223.333V153.8ZM203.481 153.8H193.555V155.8H203.481V153.8ZM183.629 153.8H173.704V155.8H183.629V153.8ZM163.778 153.8H153.852V155.8H163.778V153.8ZM143.926 153.8H134V155.8H143.926V153.8ZM124.074 153.8H114.148V155.8H124.074V153.8ZM104.222 153.8H94.2961V155.8H104.222V153.8ZM84.3701 153.8H74.4442V155.8H84.3701V153.8ZM64.5182 153.8H54.5923V155.8H64.5182V153.8ZM44.6664 153.8H34.7404V155.8H44.6664V153.8ZM24.8145 153.8H14.8886V155.8H24.8145V153.8ZM4.96272 153.8H0V155.8H4.96272V153.8Z" fill="#0C0F0A" fill-opacity="0.3" mask="url(#path-19-inside-7_294_2061)"/>
<path d="M2.384 163.416V162.472L4.808 158.816L5.344 159.24L3.08 162.664L3.152 162.808H6.928V163.416H2.384ZM5.432 164.8V160.664H6.152V164.8H5.432ZM10.1088 164.944C9.67148 164.944 9.29815 164.869 8.98881 164.72C8.68481 164.565 8.43681 164.357 8.24481 164.096C8.05815 163.834 7.92215 163.533 7.83681 163.192C7.75148 162.845 7.70881 162.48 7.70881 162.096V161.664C7.70881 161.125 7.79148 160.64 7.95681 160.208C8.12748 159.776 8.38881 159.434 8.74081 159.184C9.09815 158.928 9.55415 158.8 10.1088 158.8C10.6635 158.8 11.1168 158.928 11.4688 159.184C11.8208 159.434 12.0795 159.776 12.2448 160.208C12.4155 160.64 12.5008 161.125 12.5008 161.664V162.096C12.5008 162.48 12.4581 162.845 12.3728 163.192C12.2875 163.533 12.1488 163.834 11.9568 164.096C11.7701 164.357 11.5248 164.565 11.2208 164.72C10.9168 164.869 10.5461 164.944 10.1088 164.944ZM10.1088 164.24C10.6635 164.24 11.0688 164.053 11.3248 163.68C11.5861 163.301 11.7168 162.704 11.7168 161.888C11.7168 161.034 11.5835 160.424 11.3168 160.056C11.0555 159.688 10.6528 159.504 10.1088 159.504C9.55948 159.504 9.15148 159.688 8.88481 160.056C8.62348 160.424 8.49281 161.029 8.49281 161.872C8.49281 162.693 8.62348 163.293 8.88481 163.672C9.14615 164.05 9.55415 164.24 10.1088 164.24ZM16.0541 164.944C15.6168 164.944 15.2435 164.869 14.9341 164.72C14.6301 164.565 14.3821 164.357 14.1901 164.096C14.0035 163.834 13.8675 163.533 13.7821 163.192C13.6968 162.845 13.6541 162.48 13.6541 162.096V161.664C13.6541 161.125 13.7368 160.64 13.9021 160.208C14.0728 159.776 14.3341 159.434 14.6861 159.184C15.0435 158.928 15.4995 158.8 16.0541 158.8C16.6088 158.8 17.0621 158.928 17.4141 159.184C17.7661 159.434 18.0248 159.776 18.1901 160.208C18.3608 160.64 18.4461 161.125 18.4461 161.664V162.096C18.4461 162.48 18.4035 162.845 18.3181 163.192C18.2328 163.533 18.0941 163.834 17.9021 164.096C17.7155 164.357 17.4701 164.565 17.1661 164.72C16.8621 164.869 16.4915 164.944 16.0541 164.944ZM16.0541 164.24C16.6088 164.24 17.0141 164.053 17.2701 163.68C17.5315 163.301 17.6621 162.704 17.6621 161.888C17.6621 161.034 17.5288 160.424 17.2621 160.056C17.0008 159.688 16.5981 159.504 16.0541 159.504C15.5048 159.504 15.0968 159.688 14.8301 160.056C14.5688 160.424 14.4381 161.029 14.4381 161.872C14.4381 162.693 14.5688 163.293 14.8301 163.672C15.0915 164.05 15.4995 164.24 16.0541 164.24Z" fill="#23550A"/>
<mask id="path-22-inside-8_294_2061" fill="white">
<path d="M0 180.6H536V206.4H0V180.6Z"/>
</mask>
<path d="M536 180.1H531.037V181.1H536V180.1ZM521.111 180.1H511.185V181.1H521.111V180.1ZM501.259 180.1H491.333V181.1H501.259V180.1ZM481.407 180.1H471.481V181.1H481.407V180.1ZM461.556 180.1H451.63V181.1H461.556V180.1ZM441.704 180.1H431.778V181.1H441.704V180.1ZM421.852 180.1H411.926V181.1H421.852V180.1ZM402 180.1H392.074V181.1H402V180.1ZM382.148 180.1H372.222V181.1H382.148V180.1ZM362.296 180.1H352.37V181.1H362.296V180.1ZM342.444 180.1H332.518V181.1H342.444V180.1ZM322.593 180.1H312.667V181.1H322.593V180.1ZM302.741 180.1H292.815V181.1H302.741V180.1ZM282.889 180.1H272.963V181.1H282.889V180.1ZM263.037 180.1H253.111V181.1H263.037V180.1ZM243.185 180.1H233.259V181.1H243.185V180.1ZM223.333 180.1H213.407V181.1H223.333V180.1ZM203.481 180.1H193.555V181.1H203.481V180.1ZM183.629 180.1H173.704V181.1H183.629V180.1ZM163.778 180.1H153.852V181.1H163.778V180.1ZM143.926 180.1H134V181.1H143.926V180.1ZM124.074 180.1H114.148V181.1H124.074V180.1ZM104.222 180.1H94.2961V181.1H104.222V180.1ZM84.3701 180.1H74.4442V181.1H84.3701V180.1ZM64.5182 180.1H54.5923V181.1H64.5182V180.1ZM44.6664 180.1H34.7404V181.1H44.6664V180.1ZM24.8145 180.1H14.8886V181.1H24.8145V180.1ZM4.96272 180.1H0V181.1H4.96272V180.1ZM536 179.6H531.037V181.6H536V179.6ZM521.111 179.6H511.185V181.6H521.111V179.6ZM501.259 179.6H491.333V181.6H501.259V179.6ZM481.407 179.6H471.481V181.6H481.407V179.6ZM461.556 179.6H451.63V181.6H461.556V179.6ZM441.704 179.6H431.778V181.6H441.704V179.6ZM421.852 179.6H411.926V181.6H421.852V179.6ZM402 179.6H392.074V181.6H402V179.6ZM382.148 179.6H372.222V181.6H382.148V179.6ZM362.296 179.6H352.37V181.6H362.296V179.6ZM342.444 179.6H332.518V181.6H342.444V179.6ZM322.593 179.6H312.667V181.6H322.593V179.6ZM302.741 179.6H292.815V181.6H302.741V179.6ZM282.889 179.6H272.963V181.6H282.889V179.6ZM263.037 179.6H253.111V181.6H263.037V179.6ZM243.185 179.6H233.259V181.6H243.185V179.6ZM223.333 179.6H213.407V181.6H223.333V179.6ZM203.481 179.6H193.555V181.6H203.481V179.6ZM183.629 179.6H173.704V181.6H183.629V179.6ZM163.778 179.6H153.852V181.6H163.778V179.6ZM143.926 179.6H134V181.6H143.926V179.6ZM124.074 179.6H114.148V181.6H124.074V179.6ZM104.222 179.6H94.2961V181.6H104.222V179.6ZM84.3701 179.6H74.4442V181.6H84.3701V179.6ZM64.5182 179.6H54.5923V181.6H64.5182V179.6ZM44.6664 179.6H34.7404V181.6H44.6664V179.6ZM24.8145 179.6H14.8886V181.6H24.8145V179.6ZM4.96272 179.6H0V181.6H4.96272V179.6Z" fill="#0C0F0A" fill-opacity="0.3" mask="url(#path-22-inside-8_294_2061)"/>
<path d="M4.392 190.744C3.95467 190.744 3.584 190.659 3.28 190.488C2.976 190.317 2.744 190.091 2.584 189.808C2.42933 189.525 2.352 189.219 2.352 188.888H3.104C3.104 189.251 3.21867 189.539 3.448 189.752C3.68267 189.965 3.99733 190.072 4.392 190.072C4.65333 190.072 4.88 190.024 5.072 189.928C5.264 189.832 5.41333 189.696 5.52 189.52C5.62667 189.339 5.68 189.128 5.68 188.888C5.68 188.525 5.56267 188.232 5.328 188.008C5.09867 187.784 4.78933 187.672 4.4 187.672C4.23467 187.672 4.09067 187.693 3.968 187.736C3.85067 187.773 3.74667 187.821 3.656 187.88L3.272 187.192L5.504 185.56L5.424 185.416H2.584V184.76H6.144V185.824L4.296 187.168L3.736 187.192C3.82667 187.16 3.92533 187.133 4.032 187.112C4.144 187.091 4.27467 187.08 4.424 187.08C4.85067 187.08 5.21333 187.16 5.512 187.32C5.81067 187.48 6.03733 187.693 6.192 187.96C6.352 188.227 6.432 188.517 6.432 188.832V188.944C6.432 189.253 6.352 189.547 6.192 189.824C6.03733 190.096 5.808 190.317 5.504 190.488C5.20533 190.659 4.83467 190.744 4.392 190.744ZM9.89006 190.744C9.45273 190.744 9.0794 190.669 8.77006 190.52C8.46606 190.365 8.21806 190.157 8.02606 189.896C7.8394 189.635 7.7034 189.333 7.61806 188.992C7.53273 188.645 7.49006 188.28 7.49006 187.896V187.464C7.49006 186.925 7.57273 186.44 7.73806 186.008C7.90873 185.576 8.17006 185.235 8.52206 184.984C8.8794 184.728 9.3354 184.6 9.89006 184.6C10.4447 184.6 10.8981 184.728 11.2501 184.984C11.6021 185.235 11.8607 185.576 12.0261 186.008C12.1967 186.44 12.2821 186.925 12.2821 187.464V187.896C12.2821 188.28 12.2394 188.645 12.1541 188.992C12.0687 189.333 11.9301 189.635 11.7381 189.896C11.5514 190.157 11.3061 190.365 11.0021 190.52C10.6981 190.669 10.3274 190.744 9.89006 190.744ZM9.89006 190.04C10.4447 190.04 10.8501 189.853 11.1061 189.48C11.3674 189.101 11.4981 188.504 11.4981 187.688C11.4981 186.835 11.3647 186.224 11.0981 185.856C10.8367 185.488 10.4341 185.304 9.89006 185.304C9.34073 185.304 8.93273 185.488 8.66606 185.856C8.40473 186.224 8.27406 186.829 8.27406 187.672C8.27406 188.493 8.40473 189.093 8.66606 189.472C8.9274 189.851 9.3354 190.04 9.89006 190.04ZM15.8354 190.744C15.398 190.744 15.0247 190.669 14.7154 190.52C14.4114 190.365 14.1634 190.157 13.9714 189.896C13.7847 189.635 13.6487 189.333 13.5634 188.992C13.478 188.645 13.4354 188.28 13.4354 187.896V187.464C13.4354 186.925 13.518 186.44 13.6834 186.008C13.854 185.576 14.1154 185.235 14.4674 184.984C14.8247 184.728 15.2807 184.6 15.8354 184.6C16.39 184.6 16.8434 184.728 17.1954 184.984C17.5474 185.235 17.806 185.576 17.9714 186.008C18.142 186.44 18.2274 186.925 18.2274 187.464V187.896C18.2274 188.28 18.1847 188.645 18.0994 188.992C18.014 189.333 17.8754 189.635 17.6834 189.896C17.4967 190.157 17.2514 190.365 16.9474 190.52C16.6434 190.669 16.2727 190.744 15.8354 190.744ZM15.8354 190.04C16.39 190.04 16.7954 189.853 17.0514 189.48C17.3127 189.101 17.4434 188.504 17.4434 187.688C17.4434 186.835 17.31 186.224 17.0434 185.856C16.782 185.488 16.3794 185.304 15.8354 185.304C15.286 185.304 14.878 185.488 14.6114 185.856C14.35 186.224 14.2194 186.829 14.2194 187.672C14.2194 188.493 14.35 189.093 14.6114 189.472C14.8727 189.851 15.2807 190.04 15.8354 190.04Z" fill="#23550A"/>
<mask id="path-25-inside-9_294_2061" fill="white">
<path d="M0 206.4H536V232.2H0V206.4Z"/>
</mask>
<path d="M536 205.9H531.037V206.9H536V205.9ZM521.111 205.9H511.185V206.9H521.111V205.9ZM501.259 205.9H491.333V206.9H501.259V205.9ZM481.407 205.9H471.481V206.9H481.407V205.9ZM461.556 205.9H451.63V206.9H461.556V205.9ZM441.704 205.9H431.778V206.9H441.704V205.9ZM421.852 205.9H411.926V206.9H421.852V205.9ZM402 205.9H392.074V206.9H402V205.9ZM382.148 205.9H372.222V206.9H382.148V205.9ZM362.296 205.9H352.37V206.9H362.296V205.9ZM342.444 205.9H332.518V206.9H342.444V205.9ZM322.593 205.9H312.667V206.9H322.593V205.9ZM302.741 205.9H292.815V206.9H302.741V205.9ZM282.889 205.9H272.963V206.9H282.889V205.9ZM263.037 205.9H253.111V206.9H263.037V205.9ZM243.185 205.9H233.259V206.9H243.185V205.9ZM223.333 205.9H213.407V206.9H223.333V205.9ZM203.481 205.9H193.555V206.9H203.481V205.9ZM183.629 205.9H173.704V206.9H183.629V205.9ZM163.778 205.9H153.852V206.9H163.778V205.9ZM143.926 205.9H134V206.9H143.926V205.9ZM124.074 205.9H114.148V206.9H124.074V205.9ZM104.222 205.9H94.2961V206.9H104.222V205.9ZM84.3701 205.9H74.4442V206.9H84.3701V205.9ZM64.5182 205.9H54.5923V206.9H64.5182V205.9ZM44.6664 205.9H34.7404V206.9H44.6664V205.9ZM24.8145 205.9H14.8886V206.9H24.8145V205.9ZM4.96272 205.9H0V206.9H4.96272V205.9ZM536 205.4H531.037V207.4H536V205.4ZM521.111 205.4H511.185V207.4H521.111V205.4ZM501.259 205.4H491.333V207.4H501.259V205.4ZM481.407 205.4H471.481V207.4H481.407V205.4ZM461.556 205.4H451.63V207.4H461.556V205.4ZM441.704 205.4H431.778V207.4H441.704V205.4ZM421.852 205.4H411.926V207.4H421.852V205.4ZM402 205.4H392.074V207.4H402V205.4ZM382.148 205.4H372.222V207.4H382.148V205.4ZM362.296 205.4H352.37V207.4H362.296V205.4ZM342.444 205.4H332.518V207.4H342.444V205.4ZM322.593 205.4H312.667V207.4H322.593V205.4ZM302.741 205.4H292.815V207.4H302.741V205.4ZM282.889 205.4H272.963V207.4H282.889V205.4ZM263.037 205.4H253.111V207.4H263.037V205.4ZM243.185 205.4H233.259V207.4H243.185V205.4ZM223.333 205.4H213.407V207.4H223.333V205.4ZM203.481 205.4H193.555V207.4H203.481V205.4ZM183.629 205.4H173.704V207.4H183.629V205.4ZM163.778 205.4H153.852V207.4H163.778V205.4ZM143.926 205.4H134V207.4H143.926V205.4ZM124.074 205.4H114.148V207.4H124.074V205.4ZM104.222 205.4H94.2961V207.4H104.222V205.4ZM84.3701 205.4H74.4442V207.4H84.3701V205.4ZM64.5182 205.4H54.5923V207.4H64.5182V205.4ZM44.6664 205.4H34.7404V207.4H44.6664V205.4ZM24.8145 205.4H14.8886V207.4H24.8145V205.4ZM4.96272 205.4H0V207.4H4.96272V205.4Z" fill="#0C0F0A" fill-opacity="0.3" mask="url(#path-25-inside-9_294_2061)"/>
<path d="M2.608 216.4V215.44C2.608 215.205 2.64 215.005 2.704 214.84C2.77333 214.675 2.89067 214.525 3.056 214.392C3.22133 214.253 3.44533 214.12 3.728 213.992L4.824 213.488C5.09067 213.365 5.30133 213.208 5.456 213.016C5.61067 212.819 5.688 212.565 5.688 212.256C5.688 211.883 5.584 211.592 5.376 211.384C5.168 211.176 4.87467 211.072 4.496 211.072C4.12267 211.072 3.82933 211.176 3.616 211.384C3.40267 211.592 3.296 211.883 3.296 212.256H2.544C2.544 211.92 2.61333 211.611 2.752 211.328C2.896 211.045 3.112 210.821 3.4 210.656C3.688 210.485 4.05333 210.4 4.496 210.4C4.93867 210.4 5.30133 210.485 5.584 210.656C5.872 210.821 6.08533 211.04 6.224 211.312C6.368 211.584 6.44 211.88 6.44 212.2V212.312C6.44 212.733 6.31733 213.088 6.072 213.376C5.832 213.664 5.50667 213.901 5.096 214.088L4 214.592C3.75467 214.704 3.58933 214.816 3.504 214.928C3.41867 215.04 3.376 215.189 3.376 215.376V216.112L3.168 215.744H6.512V216.4H2.608ZM9.92131 216.544C9.48398 216.544 9.11065 216.469 8.80131 216.32C8.49731 216.165 8.24931 215.957 8.05731 215.696C7.87065 215.435 7.73465 215.133 7.64931 214.792C7.56398 214.445 7.52131 214.08 7.52131 213.696V213.264C7.52131 212.725 7.60398 212.24 7.76931 211.808C7.93998 211.376 8.20131 211.035 8.55331 210.784C8.91065 210.528 9.36665 210.4 9.92131 210.4C10.476 210.4 10.9293 210.528 11.2813 210.784C11.6333 211.035 11.892 211.376 12.0573 211.808C12.228 212.24 12.3133 212.725 12.3133 213.264V213.696C12.3133 214.08 12.2706 214.445 12.1853 214.792C12.1 215.133 11.9613 215.435 11.7693 215.696C11.5826 215.957 11.3373 216.165 11.0333 216.32C10.7293 216.469 10.3586 216.544 9.92131 216.544ZM9.92131 215.84C10.476 215.84 10.8813 215.653 11.1373 215.28C11.3986 214.901 11.5293 214.304 11.5293 213.488C11.5293 212.635 11.396 212.024 11.1293 211.656C10.868 211.288 10.4653 211.104 9.92131 211.104C9.37198 211.104 8.96398 211.288 8.69731 211.656C8.43598 212.024 8.30531 212.629 8.30531 213.472C8.30531 214.293 8.43598 214.893 8.69731 215.272C8.95865 215.651 9.36665 215.84 9.92131 215.84ZM15.8666 216.544C15.4293 216.544 15.056 216.469 14.7466 216.32C14.4426 216.165 14.1946 215.957 14.0026 215.696C13.816 215.435 13.68 215.133 13.5946 214.792C13.5093 214.445 13.4666 214.08 13.4666 213.696V213.264C13.4666 212.725 13.5493 212.24 13.7146 211.808C13.8853 211.376 14.1466 211.035 14.4986 210.784C14.856 210.528 15.312 210.4 15.8666 210.4C16.4213 210.4 16.8746 210.528 17.2266 210.784C17.5786 211.035 17.8373 211.376 18.0026 211.808C18.1733 212.24 18.2586 212.725 18.2586 213.264V213.696C18.2586 214.08 18.216 214.445 18.1306 214.792C18.0453 215.133 17.9066 215.435 17.7146 215.696C17.528 215.957 17.2826 216.165 16.9786 216.32C16.6746 216.469 16.304 216.544 15.8666 216.544ZM15.8666 215.84C16.4213 215.84 16.8266 215.653 17.0826 215.28C17.344 214.901 17.4746 214.304 17.4746 213.488C17.4746 212.635 17.3413 212.024 17.0746 211.656C16.8133 211.288 16.4106 211.104 15.8666 211.104C15.3173 211.104 14.9093 211.288 14.6426 211.656C14.3813 212.024 14.2506 212.629 14.2506 213.472C14.2506 214.293 14.3813 214.893 14.6426 215.272C14.904 215.651 15.312 215.84 15.8666 215.84Z" fill="#23550A"/>
<mask id="path-28-inside-10_294_2061" fill="white">
<path d="M0 232.2H536V258H0V232.2Z"/>
</mask>
<path d="M536 231.7H531.037V232.7H536V231.7ZM521.111 231.7H511.185V232.7H521.111V231.7ZM501.259 231.7H491.333V232.7H501.259V231.7ZM481.407 231.7H471.481V232.7H481.407V231.7ZM461.556 231.7H451.63V232.7H461.556V231.7ZM441.704 231.7H431.778V232.7H441.704V231.7ZM421.852 231.7H411.926V232.7H421.852V231.7ZM402 231.7H392.074V232.7H402V231.7ZM382.148 231.7H372.222V232.7H382.148V231.7ZM362.296 231.7H352.37V232.7H362.296V231.7ZM342.444 231.7H332.518V232.7H342.444V231.7ZM322.593 231.7H312.667V232.7H322.593V231.7ZM302.741 231.7H292.815V232.7H302.741V231.7ZM282.889 231.7H272.963V232.7H282.889V231.7ZM263.037 231.7H253.111V232.7H263.037V231.7ZM243.185 231.7H233.259V232.7H243.185V231.7ZM223.333 231.7H213.407V232.7H223.333V231.7ZM203.481 231.7H193.555V232.7H203.481V231.7ZM183.629 231.7H173.704V232.7H183.629V231.7ZM163.778 231.7H153.852V232.7H163.778V231.7ZM143.926 231.7H134V232.7H143.926V231.7ZM124.074 231.7H114.148V232.7H124.074V231.7ZM104.222 231.7H94.2961V232.7H104.222V231.7ZM84.3701 231.7H74.4442V232.7H84.3701V231.7ZM64.5182 231.7H54.5923V232.7H64.5182V231.7ZM44.6664 231.7H34.7404V232.7H44.6664V231.7ZM24.8145 231.7H14.8886V232.7H24.8145V231.7ZM4.96272 231.7H0V232.7H4.96272V231.7ZM536 231.2H531.037V233.2H536V231.2ZM521.111 231.2H511.185V233.2H521.111V231.2ZM501.259 231.2H491.333V233.2H501.259V231.2ZM481.407 231.2H471.481V233.2H481.407V231.2ZM461.556 231.2H451.63V233.2H461.556V231.2ZM441.704 231.2H431.778V233.2H441.704V231.2ZM421.852 231.2H411.926V233.2H421.852V231.2ZM402 231.2H392.074V233.2H402V231.2ZM382.148 231.2H372.222V233.2H382.148V231.2ZM362.296 231.2H352.37V233.2H362.296V231.2ZM342.444 231.2H332.518V233.2H342.444V231.2ZM322.593 231.2H312.667V233.2H322.593V231.2ZM302.741 231.2H292.815V233.2H302.741V231.2ZM282.889 231.2H272.963V233.2H282.889V231.2ZM263.037 231.2H253.111V233.2H263.037V231.2ZM243.185 231.2H233.259V233.2H243.185V231.2ZM223.333 231.2H213.407V233.2H223.333V231.2ZM203.481 231.2H193.555V233.2H203.481V231.2ZM183.629 231.2H173.704V233.2H183.629V231.2ZM163.778 231.2H153.852V233.2H163.778V231.2ZM143.926 231.2H134V233.2H143.926V231.2ZM124.074 231.2H114.148V233.2H124.074V231.2ZM104.222 231.2H94.2961V233.2H104.222V231.2ZM84.3701 231.2H74.4442V233.2H84.3701V231.2ZM64.5182 231.2H54.5923V233.2H64.5182V231.2ZM44.6664 231.2H34.7404V233.2H44.6664V231.2ZM24.8145 231.2H14.8886V233.2H24.8145V231.2ZM4.96272 231.2H0V233.2H4.96272V231.2Z" fill="#0C0F0A" fill-opacity="0.3" mask="url(#path-28-inside-10_294_2061)"/>
<path d="M3.632 242.2V236.744L3.984 237.016H2.336V236.36H4.4V242.2H3.632ZM8.33538 242.344C7.89804 242.344 7.52471 242.27 7.21538 242.12C6.91138 241.966 6.66338 241.758 6.47138 241.496C6.28471 241.235 6.14871 240.934 6.06338 240.592C5.97804 240.246 5.93538 239.88 5.93538 239.496V239.064C5.93538 238.526 6.01804 238.04 6.18338 237.608C6.35404 237.176 6.61538 236.835 6.96738 236.584C7.32471 236.328 7.78071 236.2 8.33538 236.2C8.89004 236.2 9.34338 236.328 9.69538 236.584C10.0474 236.835 10.306 237.176 10.4714 237.608C10.642 238.04 10.7274 238.526 10.7274 239.064V239.496C10.7274 239.88 10.6847 240.246 10.5994 240.592C10.514 240.934 10.3754 241.235 10.1834 241.496C9.99671 241.758 9.75138 241.966 9.44738 242.12C9.14338 242.27 8.77271 242.344 8.33538 242.344ZM8.33538 241.64C8.89004 241.64 9.29538 241.454 9.55138 241.08C9.81271 240.702 9.94338 240.104 9.94338 239.288C9.94338 238.435 9.81004 237.824 9.54338 237.456C9.28204 237.088 8.87938 236.904 8.33538 236.904C7.78604 236.904 7.37804 237.088 7.11138 237.456C6.85004 237.824 6.71938 238.43 6.71938 239.272C6.71938 240.094 6.85004 240.694 7.11138 241.072C7.37271 241.451 7.78071 241.64 8.33538 241.64ZM14.2807 242.344C13.8434 242.344 13.47 242.27 13.1607 242.12C12.8567 241.966 12.6087 241.758 12.4167 241.496C12.23 241.235 12.094 240.934 12.0087 240.592C11.9234 240.246 11.8807 239.88 11.8807 239.496V239.064C11.8807 238.526 11.9634 238.04 12.1287 237.608C12.2994 237.176 12.5607 236.835 12.9127 236.584C13.27 236.328 13.726 236.2 14.2807 236.2C14.8354 236.2 15.2887 236.328 15.6407 236.584C15.9927 236.835 16.2514 237.176 16.4167 237.608C16.5874 238.04 16.6727 238.526 16.6727 239.064V239.496C16.6727 239.88 16.63 240.246 16.5447 240.592C16.4594 240.934 16.3207 241.235 16.1287 241.496C15.942 241.758 15.6967 241.966 15.3927 242.12C15.0887 242.27 14.718 242.344 14.2807 242.344ZM14.2807 241.64C14.8354 241.64 15.2407 241.454 15.4967 241.08C15.758 240.702 15.8887 240.104 15.8887 239.288C15.8887 238.435 15.7554 237.824 15.4887 237.456C15.2274 237.088 14.8247 236.904 14.2807 236.904C13.7314 236.904 13.3234 237.088 13.0567 237.456C12.7954 237.824 12.6647 238.43 12.6647 239.272C12.6647 240.094 12.7954 240.694 13.0567 241.072C13.318 241.451 13.726 241.64 14.2807 241.64Z" fill="#23550A"/>
<path d="M44.419 275.144C44.0403 275.144 43.6963 275.064 43.387 274.904C43.0777 274.744 42.8323 274.507 42.651 274.192C42.475 273.877 42.387 273.485 42.387 273.016V272.816H43.171V273.16C43.171 273.56 43.2883 273.872 43.523 274.096C43.7577 274.315 44.0563 274.424 44.419 274.424C44.7817 274.424 45.0803 274.315 45.315 274.096C45.5497 273.872 45.667 273.56 45.667 273.16V269.704H46.451V273.016C46.451 273.485 46.3603 273.877 46.179 274.192C46.003 274.507 45.7603 274.744 45.451 274.904C45.147 275.064 44.803 275.144 44.419 275.144ZM43.155 269.864V269.16H46.451V269.864H43.155ZM47.1508 275L49.2548 269.16H50.5828L52.7508 275H51.9428L49.9828 269.672L50.3668 269.864H49.4228L49.8308 269.672L47.9348 275H47.1508ZM48.4068 273.256L48.6708 272.552H51.1908L51.4548 273.256H48.4068ZM53.8216 275V269.16H55.1016L58.0696 274.296H58.3256L58.1656 274.44V269.16H58.9176V275H57.6216L54.6536 269.864H54.3976L54.5576 269.72V275H53.8216Z" fill="#23550A"/>
<path d="M86.598 275V269.16H87.382V275H86.598ZM87.222 272.4V271.696L89.726 271.688V272.392L87.222 272.4ZM87.222 269.864V269.16H89.862V269.864H87.222ZM91.0746 275V269.16H91.8586V275H91.0746ZM91.6986 275V274.296H94.5306V275H91.6986ZM91.6986 272.384V271.68H94.2826V272.384H91.6986ZM91.6986 269.864V269.16H94.4506V269.864H91.6986ZM96.4954 275.032V274.344H98.1274C98.4421 274.344 98.6848 274.256 98.8554 274.08C99.0314 273.899 99.1194 273.659 99.1194 273.36C99.1194 273.056 99.0341 272.819 98.8634 272.648C98.6928 272.472 98.4474 272.384 98.1274 272.384H96.4954V271.872H98.0154C98.3888 271.872 98.7168 271.917 98.9994 272.008C99.2874 272.099 99.5114 272.251 99.6714 272.464C99.8368 272.672 99.9194 272.957 99.9194 273.32V273.432C99.9194 273.773 99.8501 274.064 99.7114 274.304C99.5728 274.539 99.3621 274.72 99.0794 274.848C98.7968 274.971 98.4421 275.032 98.0154 275.032H96.4954ZM95.8714 275.032V269.128H96.6554V275.032H95.8714ZM96.4954 272.24V271.728H97.9114C98.2421 271.728 98.4848 271.64 98.6394 271.464C98.7994 271.283 98.8794 271.053 98.8794 270.776C98.8794 270.493 98.7994 270.264 98.6394 270.088C98.4848 269.907 98.2421 269.816 97.9114 269.816H96.4954V269.128H97.7754C98.4154 269.128 98.8928 269.264 99.2074 269.536C99.5221 269.803 99.6794 270.189 99.6794 270.696V270.808C99.6794 271.165 99.5994 271.451 99.4394 271.664C99.2794 271.872 99.0554 272.021 98.7674 272.112C98.4848 272.197 98.1541 272.24 97.7754 272.24H96.4954Z" fill="#23550A"/>
<path d="M126.264 275V269.16H127.304L129.032 273.056H129.16L130.88 269.16H131.928V275H131.144V270.016L131.2 270.032L129.544 273.792H128.584L126.92 270.032L126.984 270.016V275H126.264ZM132.999 275L135.103 269.16H136.431L138.599 275H137.791L135.831 269.672L136.215 269.864H135.271L135.679 269.672L133.783 275H132.999ZM134.255 273.256L134.519 272.552H137.039L137.303 273.256H134.255ZM139.67 275V269.128H140.454V275H139.67ZM143.278 275L141.342 272.4H142.262L144.23 275H143.278ZM140.158 272.888V272.192H141.726C141.972 272.192 142.182 272.141 142.358 272.04C142.534 271.939 142.67 271.8 142.766 271.624C142.862 271.443 142.91 271.237 142.91 271.008C142.91 270.779 142.862 270.576 142.766 270.4C142.67 270.219 142.534 270.077 142.358 269.976C142.182 269.869 141.972 269.816 141.726 269.816H140.158V269.128H141.582C142.009 269.128 142.382 269.192 142.702 269.32C143.022 269.448 143.27 269.645 143.446 269.912C143.622 270.179 143.71 270.523 143.71 270.944V271.072C143.71 271.493 143.62 271.837 143.438 272.104C143.262 272.371 143.014 272.568 142.694 272.696C142.38 272.824 142.009 272.888 141.582 272.888H140.158Z" fill="#23550A"/>
<path d="M169.307 275L171.411 269.16H172.739L174.907 275H174.099L172.139 269.672L172.523 269.864H171.579L171.987 269.672L170.091 275H169.307ZM170.563 273.256L170.827 272.552H173.347L173.611 273.256H170.563ZM176.602 272.968V272.28H177.906C178.183 272.28 178.413 272.227 178.594 272.12C178.775 272.008 178.911 271.859 179.002 271.672C179.098 271.485 179.146 271.277 179.146 271.048C179.146 270.813 179.098 270.603 179.002 270.416C178.911 270.229 178.775 270.083 178.594 269.976C178.413 269.869 178.183 269.816 177.906 269.816H176.602V269.128H177.762C178.242 269.128 178.642 269.205 178.962 269.36C179.287 269.509 179.533 269.723 179.698 270C179.863 270.277 179.946 270.605 179.946 270.984V271.112C179.946 271.485 179.863 271.813 179.698 272.096C179.533 272.373 179.287 272.589 178.962 272.744C178.642 272.893 178.242 272.968 177.762 272.968H176.602ZM175.978 275V269.128H176.762V275H175.978ZM181.095 275V269.128H181.879V275H181.095ZM184.703 275L182.767 272.4H183.687L185.655 275H184.703ZM181.583 272.888V272.192H183.151C183.396 272.192 183.607 272.141 183.783 272.04C183.959 271.939 184.095 271.8 184.191 271.624C184.287 271.443 184.335 271.237 184.335 271.008C184.335 270.779 184.287 270.576 184.191 270.4C184.095 270.219 183.959 270.077 183.783 269.976C183.607 269.869 183.396 269.816 183.151 269.816H181.583V269.128H183.007C183.434 269.128 183.807 269.192 184.127 269.32C184.447 269.448 184.695 269.645 184.871 269.912C185.047 270.179 185.135 270.523 185.135 270.944V271.072C185.135 271.493 185.044 271.837 184.863 272.104C184.687 272.371 184.439 272.568 184.119 272.696C183.804 272.824 183.434 272.888 183.007 272.888H181.583Z" fill="#23550A"/>
<path d="M211.098 275V269.16H212.138L213.866 273.056H213.994L215.714 269.16H216.762V275H215.978V270.016L216.034 270.032L214.378 273.792H213.418L211.754 270.032L211.818 270.016V275H211.098ZM217.833 275L219.937 269.16H221.265L223.433 275H222.625L220.665 269.672L221.049 269.864H220.105L220.513 269.672L218.617 275H217.833ZM219.089 273.256L219.353 272.552H221.873L222.137 273.256H219.089ZM225.148 272.728L223.292 269.16H224.108L225.676 272.216L225.372 272.128H226.316L225.996 272.216L227.468 269.16H228.236L226.492 272.728H225.148ZM225.436 275V272.568H226.204V275H225.436Z" fill="#23550A"/>
<path d="M254.752 275.144C254.373 275.144 254.029 275.064 253.72 274.904C253.411 274.744 253.165 274.507 252.984 274.192C252.808 273.877 252.72 273.485 252.72 273.016V272.816H253.504V273.16C253.504 273.56 253.621 273.872 253.856 274.096C254.091 274.315 254.389 274.424 254.752 274.424C255.115 274.424 255.413 274.315 255.648 274.096C255.883 273.872 256 273.56 256 273.16V269.704H256.784V273.016C256.784 273.485 256.693 273.877 256.512 274.192C256.336 274.507 256.093 274.744 255.784 274.904C255.48 275.064 255.136 275.144 254.752 275.144ZM253.488 269.864V269.16H256.784V269.864H253.488ZM260.693 275.144C260.165 275.144 259.72 275.043 259.357 274.84C259 274.632 258.728 274.344 258.541 273.976C258.36 273.603 258.269 273.171 258.269 272.68V269.16H259.053V272.776C259.053 273.101 259.115 273.389 259.237 273.64C259.365 273.885 259.552 274.077 259.797 274.216C260.043 274.355 260.341 274.424 260.693 274.424C261.045 274.424 261.341 274.357 261.581 274.224C261.827 274.085 262.011 273.893 262.133 273.648C262.261 273.397 262.325 273.107 262.325 272.776V269.16H263.109V272.68C263.109 273.171 263.019 273.603 262.837 273.976C262.656 274.344 262.387 274.632 262.029 274.84C261.672 275.043 261.227 275.144 260.693 275.144ZM264.694 275V269.16H265.974L268.942 274.296H269.198L269.038 274.44V269.16H269.79V275H268.494L265.526 269.864H265.27L265.43 269.72V275H264.694Z" fill="#23550A"/>
<path d="M298.419 275.144C298.04 275.144 297.696 275.064 297.387 274.904C297.078 274.744 296.832 274.507 296.651 274.192C296.475 273.877 296.387 273.485 296.387 273.016V272.816H297.171V273.16C297.171 273.56 297.288 273.872 297.523 274.096C297.758 274.315 298.056 274.424 298.419 274.424C298.782 274.424 299.08 274.315 299.315 274.096C299.55 273.872 299.667 273.56 299.667 273.16V269.704H300.451V273.016C300.451 273.485 300.36 273.877 300.179 274.192C300.003 274.507 299.76 274.744 299.451 274.904C299.147 275.064 298.803 275.144 298.419 275.144ZM297.155 269.864V269.16H300.451V269.864H297.155ZM304.36 275.144C303.832 275.144 303.387 275.043 303.024 274.84C302.667 274.632 302.395 274.344 302.208 273.976C302.027 273.603 301.936 273.171 301.936 272.68V269.16H302.72V272.776C302.72 273.101 302.782 273.389 302.904 273.64C303.032 273.885 303.219 274.077 303.464 274.216C303.71 274.355 304.008 274.424 304.36 274.424C304.712 274.424 305.008 274.357 305.248 274.224C305.494 274.085 305.678 273.893 305.8 273.648C305.928 273.397 305.992 273.107 305.992 272.776V269.16H306.776V272.68C306.776 273.171 306.686 273.603 306.504 273.976C306.323 274.344 306.054 274.632 305.696 274.84C305.339 275.043 304.894 275.144 304.36 275.144ZM308.361 275V269.16H309.145V275H308.361ZM308.985 275V274.296H311.657V275H308.985Z" fill="#23550A"/>
<path d="M336.974 275L339.078 269.16H340.406L342.574 275H341.766L339.806 269.672L340.19 269.864H339.246L339.654 269.672L337.758 275H336.974ZM338.23 273.256L338.494 272.552H341.014L341.278 273.256H338.23ZM345.762 275.144C345.234 275.144 344.788 275.043 344.426 274.84C344.068 274.632 343.796 274.344 343.61 273.976C343.428 273.603 343.338 273.171 343.338 272.68V269.16H344.122V272.776C344.122 273.101 344.183 273.389 344.306 273.64C344.434 273.885 344.62 274.077 344.866 274.216C345.111 274.355 345.41 274.424 345.762 274.424C346.114 274.424 346.41 274.357 346.65 274.224C346.895 274.085 347.079 273.893 347.202 273.648C347.33 273.397 347.394 273.107 347.394 272.776V269.16H348.178V272.68C348.178 273.171 348.087 273.603 347.906 273.976C347.724 274.344 347.455 274.632 347.098 274.84C346.74 275.043 346.295 275.144 345.762 275.144ZM352.37 275.144C351.917 275.144 351.506 275.069 351.138 274.92C350.77 274.771 350.453 274.56 350.186 274.288C349.925 274.016 349.722 273.696 349.578 273.328C349.434 272.955 349.362 272.549 349.362 272.112V271.936C349.362 271.563 349.426 271.203 349.554 270.856C349.687 270.504 349.877 270.189 350.122 269.912C350.373 269.629 350.677 269.408 351.034 269.248C351.391 269.083 351.794 269 352.242 269C352.727 269 353.159 269.093 353.538 269.28C353.917 269.461 354.221 269.717 354.45 270.048C354.679 270.373 354.813 270.752 354.85 271.184H354.05C354.013 270.859 353.906 270.589 353.73 270.376C353.554 270.157 353.335 269.995 353.074 269.888C352.818 269.776 352.541 269.72 352.242 269.72C351.938 269.72 351.658 269.776 351.402 269.888C351.146 269.995 350.925 270.149 350.738 270.352C350.557 270.555 350.415 270.797 350.314 271.08C350.213 271.363 350.162 271.68 350.162 272.032C350.162 272.432 350.215 272.784 350.322 273.088C350.434 273.387 350.589 273.637 350.786 273.84C350.983 274.037 351.215 274.187 351.482 274.288C351.754 274.389 352.05 274.44 352.37 274.44C352.823 274.44 353.221 274.349 353.562 274.168C353.909 273.981 354.17 273.741 354.346 273.448L354.058 274.4V272.664H354.794V274.056C354.533 274.397 354.197 274.664 353.786 274.856C353.375 275.048 352.903 275.144 352.37 275.144ZM352.162 272.824V272.168H355.29V272.824H352.162Z" fill="#23550A"/>
<path d="M383.16 275.144C382.675 275.144 382.261 275.064 381.92 274.904C381.579 274.744 381.317 274.523 381.136 274.24C380.955 273.957 380.864 273.637 380.864 273.28H381.648C381.648 273.456 381.693 273.632 381.784 273.808C381.88 273.984 382.037 274.131 382.256 274.248C382.48 274.365 382.781 274.424 383.16 274.424C383.512 274.424 383.8 274.373 384.024 274.272C384.248 274.165 384.413 274.029 384.52 273.864C384.627 273.693 384.68 273.509 384.68 273.312C384.68 273.072 384.576 272.875 384.368 272.72C384.16 272.56 383.856 272.461 383.456 272.424L382.808 272.368C382.291 272.325 381.877 272.165 381.568 271.888C381.259 271.611 381.104 271.245 381.104 270.792C381.104 270.435 381.189 270.123 381.36 269.856C381.536 269.589 381.779 269.381 382.088 269.232C382.397 269.077 382.757 269 383.168 269C383.573 269 383.931 269.075 384.24 269.224C384.549 269.373 384.789 269.584 384.96 269.856C385.136 270.123 385.224 270.443 385.224 270.816H384.44C384.44 270.629 384.395 270.453 384.304 270.288C384.219 270.123 384.083 269.987 383.896 269.88C383.709 269.773 383.467 269.72 383.168 269.72C382.88 269.72 382.64 269.771 382.448 269.872C382.261 269.973 382.12 270.107 382.024 270.272C381.933 270.432 381.888 270.605 381.888 270.792C381.888 271.005 381.971 271.195 382.136 271.36C382.301 271.525 382.547 271.621 382.872 271.648L383.52 271.704C383.92 271.736 384.264 271.821 384.552 271.96C384.845 272.093 385.069 272.275 385.224 272.504C385.384 272.728 385.464 272.997 385.464 273.312C385.464 273.669 385.368 273.987 385.176 274.264C384.984 274.541 384.715 274.757 384.368 274.912C384.021 275.067 383.619 275.144 383.16 275.144ZM386.78 275V269.16H387.564V275H386.78ZM387.404 275V274.296H390.236V275H387.404ZM387.404 272.384V271.68H389.988V272.384H387.404ZM387.404 269.864V269.16H390.156V269.864H387.404ZM392.201 272.968V272.28H393.505C393.782 272.28 394.011 272.227 394.193 272.12C394.374 272.008 394.51 271.859 394.601 271.672C394.697 271.485 394.745 271.277 394.745 271.048C394.745 270.813 394.697 270.603 394.601 270.416C394.51 270.229 394.374 270.083 394.193 269.976C394.011 269.869 393.782 269.816 393.505 269.816H392.201V269.128H393.361C393.841 269.128 394.241 269.205 394.561 269.36C394.886 269.509 395.131 269.723 395.297 270C395.462 270.277 395.545 270.605 395.545 270.984V271.112C395.545 271.485 395.462 271.813 395.297 272.096C395.131 272.373 394.886 272.589 394.561 272.744C394.241 272.893 393.841 272.968 393.361 272.968H392.201ZM391.577 275V269.128H392.361V275H391.577Z" fill="#23550A"/>
<path d="M425.047 275.144C424.524 275.144 424.074 275.051 423.695 274.864C423.316 274.677 423.004 274.432 422.759 274.128C422.514 273.824 422.33 273.499 422.207 273.152C422.09 272.805 422.031 272.472 422.031 272.152V271.976C422.031 271.629 422.092 271.28 422.215 270.928C422.338 270.576 422.524 270.256 422.775 269.968C423.026 269.675 423.338 269.44 423.711 269.264C424.09 269.088 424.535 269 425.047 269C425.559 269 426.002 269.088 426.375 269.264C426.754 269.44 427.068 269.675 427.319 269.968C427.57 270.256 427.756 270.576 427.879 270.928C428.002 271.28 428.063 271.629 428.063 271.976V272.152C428.063 272.472 428.002 272.805 427.879 273.152C427.762 273.499 427.58 273.824 427.335 274.128C427.09 274.432 426.778 274.677 426.399 274.864C426.02 275.051 425.57 275.144 425.047 275.144ZM425.047 274.424C425.388 274.424 425.695 274.36 425.967 274.232C426.244 274.104 426.479 273.931 426.671 273.712C426.863 273.488 427.01 273.237 427.111 272.96C427.212 272.677 427.263 272.381 427.263 272.072C427.263 271.747 427.212 271.443 427.111 271.16C427.01 270.877 426.863 270.629 426.671 270.416C426.479 270.197 426.244 270.027 425.967 269.904C425.695 269.781 425.388 269.72 425.047 269.72C424.706 269.72 424.396 269.781 424.119 269.904C423.847 270.027 423.615 270.197 423.423 270.416C423.231 270.629 423.084 270.877 422.983 271.16C422.882 271.443 422.831 271.747 422.831 272.072C422.831 272.381 422.882 272.677 422.983 272.96C423.084 273.237 423.231 273.488 423.423 273.712C423.615 273.931 423.847 274.104 424.119 274.232C424.396 274.36 424.706 274.424 425.047 274.424ZM431.889 275.144C431.356 275.144 430.9 275.051 430.521 274.864C430.148 274.677 429.846 274.435 429.617 274.136C429.388 273.837 429.22 273.515 429.113 273.168C429.006 272.816 428.953 272.477 428.953 272.152V271.976C428.953 271.624 429.006 271.272 429.113 270.92C429.225 270.568 429.396 270.248 429.625 269.96C429.854 269.672 430.153 269.44 430.521 269.264C430.889 269.088 431.329 269 431.841 269C432.364 269 432.812 269.091 433.185 269.272C433.558 269.453 433.854 269.707 434.073 270.032C434.292 270.357 434.425 270.741 434.473 271.184H433.673C433.63 270.853 433.524 270.581 433.353 270.368C433.182 270.149 432.966 269.987 432.705 269.88C432.449 269.773 432.161 269.72 431.841 269.72C431.494 269.72 431.19 269.781 430.929 269.904C430.668 270.021 430.449 270.189 430.273 270.408C430.102 270.621 429.972 270.869 429.881 271.152C429.796 271.435 429.753 271.741 429.753 272.072C429.753 272.387 429.796 272.685 429.881 272.968C429.972 273.251 430.105 273.501 430.281 273.72C430.462 273.939 430.686 274.112 430.953 274.24C431.22 274.363 431.532 274.424 431.889 274.424C432.39 274.424 432.812 274.299 433.153 274.048C433.494 273.797 433.702 273.435 433.777 272.96H434.577C434.524 273.36 434.388 273.725 434.169 274.056C433.956 274.387 433.657 274.651 433.273 274.848C432.894 275.045 432.433 275.144 431.889 275.144ZM436.817 275V269.704H437.601V275H436.817ZM435.041 269.864V269.16H439.377V269.864H435.041Z" fill="#23550A"/>
<path d="M463.598 275V269.16H464.878L467.846 274.296H468.102L467.942 274.44V269.16H468.694V275H467.398L464.43 269.864H464.174L464.334 269.72V275H463.598ZM473.003 275.144C472.48 275.144 472.03 275.051 471.651 274.864C471.272 274.677 470.96 274.432 470.715 274.128C470.47 273.824 470.286 273.499 470.163 273.152C470.046 272.805 469.987 272.472 469.987 272.152V271.976C469.987 271.629 470.048 271.28 470.171 270.928C470.294 270.576 470.48 270.256 470.731 269.968C470.982 269.675 471.294 269.44 471.667 269.264C472.046 269.088 472.491 269 473.003 269C473.515 269 473.958 269.088 474.331 269.264C474.71 269.44 475.024 269.675 475.275 269.968C475.526 270.256 475.712 270.576 475.835 270.928C475.958 271.28 476.019 271.629 476.019 271.976V272.152C476.019 272.472 475.958 272.805 475.835 273.152C475.718 273.499 475.536 273.824 475.291 274.128C475.046 274.432 474.734 274.677 474.355 274.864C473.976 275.051 473.526 275.144 473.003 275.144ZM473.003 274.424C473.344 274.424 473.651 274.36 473.923 274.232C474.2 274.104 474.435 273.931 474.627 273.712C474.819 273.488 474.966 273.237 475.067 272.96C475.168 272.677 475.219 272.381 475.219 272.072C475.219 271.747 475.168 271.443 475.067 271.16C474.966 270.877 474.819 270.629 474.627 270.416C474.435 270.197 474.2 270.027 473.923 269.904C473.651 269.781 473.344 269.72 473.003 269.72C472.662 269.72 472.352 269.781 472.075 269.904C471.803 270.027 471.571 270.197 471.379 270.416C471.187 270.629 471.04 270.877 470.939 271.16C470.838 271.443 470.787 271.747 470.787 272.072C470.787 272.381 470.838 272.677 470.939 272.96C471.04 273.237 471.187 273.488 471.379 273.712C471.571 273.931 471.803 274.104 472.075 274.232C472.352 274.36 472.662 274.424 473.003 274.424ZM478.598 275L476.574 269.16H477.382L479.198 274.488L478.814 274.296H479.774L479.366 274.488L481.038 269.16H481.822L479.942 275H478.598Z" fill="#23550A"/>
<path d="M507.388 275.032V274.312H508.844C509.196 274.312 509.508 274.256 509.78 274.144C510.057 274.027 510.292 273.867 510.484 273.664C510.681 273.461 510.831 273.224 510.932 272.952C511.033 272.68 511.084 272.387 511.084 272.072C511.084 271.741 511.033 271.443 510.932 271.176C510.831 270.904 510.681 270.669 510.484 270.472C510.292 270.269 510.057 270.115 509.78 270.008C509.508 269.901 509.196 269.848 508.844 269.848H507.388V269.128H508.764C509.292 269.128 509.751 269.211 510.14 269.376C510.529 269.536 510.852 269.755 511.108 270.032C511.369 270.304 511.564 270.611 511.692 270.952C511.82 271.288 511.884 271.632 511.884 271.984V272.16C511.884 272.501 511.82 272.843 511.692 273.184C511.564 273.525 511.369 273.835 511.108 274.112C510.852 274.389 510.529 274.613 510.14 274.784C509.751 274.949 509.292 275.032 508.764 275.032H507.388ZM506.764 275.032V269.128H507.548V275.032H506.764ZM513.092 275V269.16H513.876V275H513.092ZM513.716 275V274.296H516.548V275H513.716ZM513.716 272.384V271.68H516.3V272.384H513.716ZM513.716 269.864V269.16H516.468V269.864H513.716ZM520.378 275.144C519.845 275.144 519.389 275.051 519.01 274.864C518.637 274.677 518.335 274.435 518.106 274.136C517.877 273.837 517.709 273.515 517.602 273.168C517.495 272.816 517.442 272.477 517.442 272.152V271.976C517.442 271.624 517.495 271.272 517.602 270.92C517.714 270.568 517.885 270.248 518.114 269.96C518.343 269.672 518.642 269.44 519.01 269.264C519.378 269.088 519.818 269 520.33 269C520.853 269 521.301 269.091 521.674 269.272C522.047 269.453 522.343 269.707 522.562 270.032C522.781 270.357 522.914 270.741 522.962 271.184H522.162C522.119 270.853 522.013 270.581 521.842 270.368C521.671 270.149 521.455 269.987 521.194 269.88C520.938 269.773 520.65 269.72 520.33 269.72C519.983 269.72 519.679 269.781 519.418 269.904C519.157 270.021 518.938 270.189 518.762 270.408C518.591 270.621 518.461 270.869 518.37 271.152C518.285 271.435 518.242 271.741 518.242 272.072C518.242 272.387 518.285 272.685 518.37 272.968C518.461 273.251 518.594 273.501 518.77 273.72C518.951 273.939 519.175 274.112 519.442 274.24C519.709 274.363 520.021 274.424 520.378 274.424C520.879 274.424 521.301 274.299 521.642 274.048C521.983 273.797 522.191 273.435 522.266 272.96H523.066C523.013 273.36 522.877 273.725 522.658 274.056C522.445 274.387 522.146 274.651 521.762 274.848C521.383 275.045 520.922 275.144 520.378 275.144Z" fill="#23550A"/>
</svg>
