<svg width="160" height="40" viewBox="0 0 160 40" fill="none" xmlns="http://www.w3.org/2000/svg">
<g clip-path="url(#clip0_22_126)">
<path d="M16.0002 0L0 5.99996V20C0 31.9999 16.0002 40 16.0002 40C16.0002 40 16.5449 39.7274 17.4324 39.2085C13.0051 36.9398 11.5114 35.4237 11.7349 34.4083C12.0825 32.8271 16.5797 32.5032 16.5191 31.4922C16.4865 30.9483 15.1538 30.5441 13.4334 30.242C13.4053 30.2465 13.3763 30.2492 13.3478 30.2505C13.2501 30.2487 13.1537 30.2291 13.0636 30.1921C13.0493 30.1863 13.0359 30.1791 13.0225 30.1724C13.0185 30.172 13.0149 30.1711 13.0109 30.1707L13.0131 30.168C12.7374 30.0261 12.5795 29.7227 12.6259 29.4117L12.8159 28.1745H15.2654L14.1709 29.6058C17.2985 29.592 20.9427 30.5347 20.999 31.3209C21.0873 32.5514 17.2383 33.3094 17.328 34.1232C17.3958 34.7402 19.3107 34.4409 24.1457 34.3713C28.0965 30.8778 31.9999 25.9268 31.9999 20V5.99996L16.0002 0ZM11.8897 10.4009C11.9691 10.0649 12.2734 9.83024 12.6187 9.83961H19.9081C20.1285 9.83871 20.3377 9.93821 20.4765 10.1095C20.6175 10.2826 20.671 10.5111 20.6224 10.7292L20.1736 12.7486H11.3481L11.8897 10.4013V10.4009ZM23.3997 17.5372L15.9814 27.238H12.9596L13.9523 20.7741H10.4317C10.0292 20.7848 9.69416 20.4676 9.68345 20.0651C9.68167 20.0022 9.68836 19.9389 9.70264 19.8778L11.1317 13.6855H19.9652L19.3615 16.4004H22.8242C23.103 16.3999 23.3578 16.5583 23.48 16.8086C23.5862 17.0482 23.5559 17.3266 23.3997 17.5376V17.5372Z" fill="#0C0F0A"/>
</g>
<g clip-path="url(#clip1_22_126)">
<path d="M89.1992 19.2597C89.0384 19.1587 88.8495 19.1078 88.6324 19.1078C88.4152 19.1078 88.2181 19.1596 88.0573 19.2633C87.8965 19.367 87.773 19.5116 87.6867 19.6971C87.6004 19.8827 87.5568 20.1046 87.5568 20.3611C87.5568 20.6176 87.6004 20.834 87.6867 21.0214C87.773 21.2096 87.8965 21.3552 88.0573 21.4598C88.2181 21.5634 88.4098 21.6153 88.6324 21.6153C88.8549 21.6153 89.0384 21.5634 89.1992 21.4598C89.36 21.3561 89.4836 21.2096 89.5699 21.0214C89.6562 20.8331 89.6998 20.613 89.6998 20.3611C89.6998 20.1091 89.6562 19.8809 89.5699 19.6926C89.4836 19.5043 89.36 19.3597 89.1992 19.2588V19.2597Z" fill="black"/>
<path d="M87.3978 14.5548C84.3991 14.5548 81.959 16.9977 81.959 20C81.959 23.0023 84.3991 25.4452 87.3978 25.4452C90.3966 25.4452 92.8367 23.0023 92.8367 20C92.8367 16.9977 90.3966 14.5548 87.3978 14.5548ZM86.3186 19.0996H85.4883V21.0223C85.4883 21.2251 85.5192 21.3824 85.5809 21.4934C85.6427 21.6044 85.7581 21.6608 85.9261 21.6608C85.9752 21.6608 86.0333 21.6544 86.1006 21.6426C86.1669 21.6307 86.2405 21.6144 86.3195 21.5944V22.1582C86.2205 22.1928 86.1215 22.2192 86.0224 22.2365C85.9234 22.2537 85.8271 22.2628 85.7336 22.2628C85.5555 22.2628 85.3911 22.2283 85.2403 22.1592C85.0895 22.09 84.9705 21.9773 84.8842 21.8217C84.7979 21.6662 84.7543 21.4643 84.7543 21.2169V19.1014H84.0275V18.5375H84.7543V17.6025L85.4883 17.1942V18.5375H86.3186V19.1014V19.0996ZM90.1931 21.3415C90.0377 21.6289 89.8252 21.8536 89.5554 22.0173C89.2856 22.181 88.9785 22.2619 88.6324 22.2619C88.2863 22.2619 87.9774 22.1801 87.7058 22.0173C87.4342 21.8536 87.2198 21.6289 87.0644 21.3415C86.9091 21.055 86.831 20.7276 86.831 20.362C86.831 19.9964 86.9073 19.6708 87.0608 19.3861C87.2143 19.1014 87.4278 18.8777 87.7021 18.714C87.9765 18.5502 88.2863 18.4693 88.6324 18.4693C88.9785 18.4693 89.2919 18.5502 89.559 18.7103C89.8261 18.8713 90.0368 19.095 90.1931 19.3824C90.3484 19.6698 90.4266 19.9964 90.4266 20.362C90.4266 20.7276 90.3484 21.055 90.1931 21.3415Z" fill="black"/>
<path d="M40.534 25.8699L40.5749 25.819H40.5085L40.534 25.8699Z" fill="black"/>
<path d="M40.4832 14.181H49.3605L49.335 14.2319L39.9999 25.7172V26.2774H49.7166V25.819H40.5749L40.534 25.87L40.5086 25.819H40.5749L49.8437 14.3593V13.7226H40.4832V14.181Z" fill="black"/>
<path d="M61.8242 19.7071L62.0023 19.5798H61.8351C61.8315 19.6226 61.8297 19.6644 61.8242 19.7071Z" fill="black"/>
<path d="M61.2011 15.4161C60.8023 14.8813 60.2763 14.4448 59.624 14.1046C58.9709 13.7654 58.1696 13.5953 57.2203 13.5953C56.44 13.5953 55.7277 13.7526 55.0837 14.0664C54.4387 14.3811 53.8881 14.8304 53.4303 15.4161C52.9724 16.0018 52.62 16.6894 52.3747 17.4789C52.1285 18.2683 52.0059 19.1387 52.0059 20.0891C52.0059 21.0396 52.133 21.8809 52.3874 22.6612C52.6418 23.4425 53.0015 24.1091 53.4684 24.6603C53.9345 25.2124 54.5023 25.6407 55.1727 25.9463C55.8422 26.2519 56.5926 26.4047 57.4238 26.4047C58.0506 26.4047 58.6193 26.3447 59.128 26.2265C59.6368 26.1082 60.1237 25.9081 60.5906 25.628C61.0567 25.3479 61.5354 24.9623 62.0278 24.4693L61.6208 24.1128C60.9758 24.7922 60.3444 25.2633 59.7258 25.5262C59.1062 25.7899 58.3395 25.9209 57.4238 25.9209C55.9312 25.9209 54.7403 25.4034 53.85 24.3674C52.9597 23.3324 52.5146 21.8718 52.5146 19.9873H62.2821C62.2985 19.9027 62.3112 19.7708 62.3203 19.5925C62.3285 19.4143 62.333 19.1978 62.333 18.9432C62.333 18.3829 62.244 17.789 62.0659 17.1605C61.8879 16.533 61.599 15.9509 61.2011 15.4161ZM61.8243 19.7071C61.8288 19.6644 61.8316 19.6226 61.8352 19.5798H52.5146C52.5818 18.4939 52.8153 17.5389 53.2141 16.7149C53.612 15.8918 54.1552 15.2424 54.842 14.7667C55.5288 14.292 56.321 14.0537 57.2203 14.0537C58.1197 14.0537 58.8137 14.2065 59.4078 14.5121C60.001 14.8176 60.4762 15.2087 60.8323 15.6835C61.1884 16.1592 61.4464 16.6767 61.6081 17.2369C61.7689 17.7972 61.8497 18.332 61.8497 18.8413V19.2488C61.8497 19.3588 61.8434 19.4698 61.8352 19.5798H62.0023L61.8243 19.7071Z" fill="black"/>
<path d="M66.7335 17.0077V16.6176C66.6962 16.744 66.6617 16.8731 66.6317 17.0077H66.7335Z" fill="black"/>
<path d="M70.9813 13.5953C70.4553 13.5953 69.8876 13.7062 69.2771 13.9263C68.6666 14.1473 68.1197 14.5039 67.6364 14.9959C67.2304 15.4097 66.9297 15.9518 66.7335 16.6176V17.0077H66.6317C66.6617 16.8722 66.6962 16.744 66.7335 16.6176V13.7226H66.2247V26.2774H66.7335V19.6562C66.7335 18.9604 66.7544 18.4338 66.7971 18.0773C66.8388 17.7208 66.8943 17.407 66.9624 17.1351C67.1659 16.3884 67.4838 15.7945 67.9162 15.3524C68.3487 14.9113 68.832 14.5885 69.3661 14.3847C69.9003 14.181 70.4126 14.0791 70.905 14.0791C71.193 14.0791 71.4646 14.1091 71.719 14.1683C71.9733 14.2283 72.2104 14.3001 72.4312 14.3847L72.711 13.9263C72.4566 13.8081 72.1723 13.7226 71.8589 13.6717C71.5446 13.6207 71.252 13.5953 70.9813 13.5953Z" fill="black"/>
<path d="M82.4022 25.1824C81.6219 25.6917 80.7062 25.9464 79.6551 25.9464C78.604 25.9464 77.7092 25.6917 76.9207 25.1824C76.1322 24.673 75.5172 23.9727 75.0766 23.0814C74.6351 22.1901 74.4152 21.1587 74.4152 19.9873C74.4152 18.8158 74.6351 17.7845 75.0766 16.8931C75.5172 16.0018 76.1322 15.3061 76.9207 14.8049C77.7092 14.3047 78.6204 14.0537 79.6551 14.0537C80.6898 14.0537 81.601 14.3047 82.3895 14.8049C82.6393 14.9641 82.8701 15.1451 83.0854 15.3433C83.2044 15.2324 83.3279 15.1269 83.456 15.0259C83.2098 14.7986 82.9455 14.5921 82.6566 14.4111C81.7918 13.8681 80.7907 13.5962 79.6551 13.5962C78.5196 13.5962 77.5185 13.8681 76.6536 14.4111C75.7888 14.955 75.1147 15.7062 74.6314 16.6649C74.1481 17.6244 73.9065 18.7322 73.9065 19.9882C73.9065 21.2442 74.1518 22.3565 74.6441 23.3243C75.1356 24.292 75.8142 25.0478 76.6791 25.5907C77.5439 26.1346 78.5359 26.4057 79.6551 26.4057C80.7743 26.4057 81.7872 26.1346 82.6439 25.5907C82.9319 25.4079 83.198 25.1987 83.4451 24.9677C83.3188 24.8668 83.1962 24.7613 83.0781 24.6512C82.8683 24.8468 82.6448 25.025 82.4022 25.1833V25.1824Z" fill="black"/>
<path d="M102.005 17.7217H94.6198V10.4911H90.3411V14.3729C92.3623 15.437 93.745 17.5598 93.745 20C93.745 22.4402 92.3623 24.563 90.3411 25.6271V29.5089H94.6198V21.6508H102.005V29.5089H106.284V10.4911H102.005V17.7217Z" fill="black"/>
<path d="M109.499 29.5089H122.254V25.689H113.778V21.6235H121.845V17.8035H113.778V14.3111H122.254V10.4911H109.499V29.5089Z" fill="black"/>
<path d="M135.2 21.3697C135.816 21.1141 136.352 20.7758 136.808 20.3547C137.862 19.3815 138.389 17.9673 138.389 16.1119C138.389 14.9841 138.171 13.9973 137.734 13.1514C137.298 12.3056 136.599 11.6508 135.636 11.1869C134.673 10.7231 133.392 10.4911 131.793 10.4911H125.116V29.5089H129.395V21.9509H130.837L135.227 29.5089H140.187L135.201 21.3697H135.2ZM129.394 18.131V14.3111H131.356C131.811 14.3111 132.247 14.3429 132.664 14.4066C133.082 14.4702 133.428 14.6339 133.7 14.8977C133.973 15.1614 134.109 15.5844 134.109 16.1664C134.109 16.7485 133.973 17.1805 133.7 17.4625C133.428 17.7444 133.082 17.9263 132.664 18.0082C132.247 18.09 131.811 18.131 131.356 18.131H129.394Z" fill="black"/>
<path d="M158.228 14.734C157.447 13.2333 156.357 12.0691 154.958 11.2415C153.559 10.4138 151.932 10 150.079 10C148.226 10 146.627 10.4184 145.228 11.2551C143.829 12.0919 142.739 13.2606 141.958 14.7613C141.177 16.2619 140.786 18.0127 140.786 20.0136C140.786 22.0146 141.177 23.7381 141.958 25.2387C142.739 26.7394 143.829 27.9081 145.228 28.7449C146.627 29.5816 148.244 30 150.079 30C151.914 30 153.531 29.5862 154.93 28.7585C156.329 27.9309 157.424 26.7667 158.214 25.266C159.005 23.7653 159.4 22.0146 159.4 20.0136C159.4 18.0127 159.009 16.2347 158.228 14.734ZM154.481 23.1378C154.072 24.02 153.495 24.7021 152.75 25.1842C152.005 25.6662 151.115 25.9072 150.079 25.9072C149.044 25.9072 148.176 25.6708 147.422 25.1978C146.668 24.7249 146.087 24.0473 145.678 23.1651C145.269 22.2829 145.065 21.2324 145.065 20.0136C145.065 18.7949 145.269 17.7171 145.678 16.8349C146.087 15.9527 146.668 15.2751 147.422 14.8022C148.176 14.3292 149.062 14.0928 150.079 14.0928C151.097 14.0928 152.005 14.3338 152.75 14.8158C153.495 15.2979 154.072 15.98 154.481 16.8622C154.889 17.7444 155.094 18.7949 155.094 20.0136C155.094 21.2324 154.889 22.2556 154.481 23.1378Z" fill="black"/>
</g>
<defs>
<clipPath id="clip0_22_126">
<rect width="31.9999" height="40" fill="white"/>
</clipPath>
<clipPath id="clip1_22_126">
<rect width="119.4" height="20" fill="white" transform="translate(39.9999 10)"/>
</clipPath>
</defs>
</svg>
