<svg width="10" height="10" viewBox="0 0 18 18" fill="none" xmlns="http://www.w3.org/2000/svg">
<path d="M10.1629 4.15866L1.23317 13.5435C1.19438 13.5843 1.16401 13.6324 1.1438 13.6849C1.12358 13.7374 1.11391 13.7934 1.11535 13.8497C1.11678 13.906 1.12928 13.9614 1.15215 14.0129C1.17501 14.0643 1.20779 14.1107 1.2486 14.1495L3.73431 16.5127C3.81667 16.5907 3.92663 16.633 4.04007 16.6301C4.15352 16.6272 4.26118 16.5794 4.33946 16.4972L13.2675 7.11324L10.1629 4.15866ZM16.7466 3.45666C16.8247 3.37431 16.8669 3.26435 16.864 3.1509C16.8611 3.03746 16.8133 2.9298 16.7312 2.85152L14.2455 0.488379C14.2047 0.449538 14.1567 0.419104 14.1042 0.398815C14.0517 0.378527 13.9957 0.36878 13.9394 0.370133C13.8832 0.371487 13.8277 0.383913 13.7762 0.406702C13.7248 0.429491 13.6783 0.462196 13.6395 0.50295L11.3423 2.91752L14.4469 5.87124L16.7466 3.45666ZM14.2695 13.9421L13.4123 13.9635L13.3917 13.1064C13.3889 12.9938 13.364 12.8829 13.3183 12.78C13.2726 12.6771 13.2071 12.5842 13.1255 12.5066C13.044 12.429 12.9479 12.3682 12.8428 12.3277C12.7377 12.2872 12.6257 12.2679 12.5132 12.2707C12.4006 12.2735 12.2897 12.2984 12.1868 12.3441C12.0839 12.3898 11.991 12.4553 11.9134 12.5369C11.8358 12.6185 11.775 12.7145 11.7345 12.8196C11.694 12.9247 11.6746 13.0367 11.6775 13.1492L11.6989 14.0064L10.8417 14.027C10.6144 14.0326 10.3987 14.1284 10.2419 14.2932C10.0852 14.4579 10.0003 14.6782 10.006 14.9055C10.0117 15.1328 10.1075 15.3486 10.2722 15.5053C10.437 15.6621 10.6573 15.7469 10.8846 15.7412L11.7417 15.7198L11.7632 16.577C11.7689 16.8043 11.8646 17.02 12.0294 17.1768C12.1941 17.3335 12.4144 17.4183 12.6417 17.4127C12.8691 17.407 13.0848 17.3112 13.2416 17.1465C13.3983 16.9817 13.4831 16.7614 13.4775 16.5341L13.456 15.6769L14.3132 15.6564C14.5405 15.6507 14.7563 15.5549 14.913 15.3902C15.0697 15.2254 15.1546 15.0051 15.1489 14.7778C15.1432 14.5505 15.0474 14.3347 14.8827 14.178C14.7179 14.0213 14.4976 13.9364 14.2703 13.9421H14.2695ZM2.10317 7.38581L2.1246 8.24295C2.13028 8.47028 2.22604 8.68604 2.3908 8.84277C2.55557 8.99949 2.77584 9.08435 3.00317 9.07867C3.2305 9.07298 3.44626 8.97723 3.60299 8.81246C3.75971 8.6477 3.84457 8.42742 3.83888 8.20009L3.81746 7.34295L4.6746 7.32152C4.78716 7.31871 4.89807 7.29375 5.00098 7.24808C5.1039 7.2024 5.19681 7.1369 5.27441 7.05532C5.35202 6.97374 5.41279 6.87767 5.45327 6.7726C5.49374 6.66753 5.51313 6.55551 5.51031 6.44295C5.5075 6.33039 5.48254 6.21948 5.43687 6.11657C5.39119 6.01365 5.32569 5.92074 5.24411 5.84314C5.16253 5.76553 5.06646 5.70476 4.96139 5.66428C4.85632 5.62381 4.7443 5.60442 4.63174 5.60724L3.7746 5.62866L3.75317 4.77152C3.7476 4.54419 3.65195 4.32839 3.48727 4.17158C3.32259 4.01477 3.10236 3.92981 2.87503 3.93538C2.6477 3.94095 2.43189 4.0366 2.27509 4.20128C2.11828 4.36596 2.03331 4.58619 2.03888 4.81352L2.06031 5.67066L1.20317 5.69209C0.975842 5.69778 0.760082 5.79353 0.603355 5.9583C0.446628 6.12306 0.361772 6.34334 0.367456 6.57066C0.373139 6.79799 0.468895 7.01375 0.633659 7.17048C0.798423 7.32721 1.0187 7.41206 1.24603 7.40638L2.10317 7.38581ZM15.0203 9.63667L13.306 9.67952L13.3489 11.3938L15.0632 11.351L15.0203 9.63667ZM9.64517 0.338379L7.93089 0.381236L7.97374 2.09552L9.68803 2.05266L9.64517 0.338379ZM7.1166 2.11695L5.40231 2.15981L5.44517 3.87324L7.15946 3.83038L7.1166 2.11695ZM4.50317 0.466093L2.78888 0.50895L2.83174 2.22324L4.54603 2.18038L4.50317 0.466093ZM17.5266 7.00181L15.8123 7.04466L15.8552 8.75895L17.5695 8.71609L17.5266 7.00181ZM17.6337 11.2858L15.9195 11.3287L15.9623 13.043L17.6766 13.0001L17.6337 11.2858Z" fill="#0C0F0A"/>
</svg>
